<?xml version="1.0" encoding="UTF-8" standalone="no"?>
<!-- Created with Inkscape (http://www.inkscape.org/) -->

<svg
   xmlns:dc="http://purl.org/dc/elements/1.1/"
   xmlns:cc="http://creativecommons.org/ns#"
   xmlns:rdf="http://www.w3.org/1999/02/22-rdf-syntax-ns#"
   xmlns:svg="http://www.w3.org/2000/svg"
   xmlns="http://www.w3.org/2000/svg"
   xmlns:xlink="http://www.w3.org/1999/xlink"
   xmlns:sodipodi="http://sodipodi.sourceforge.net/DTD/sodipodi-0.dtd"
   xmlns:inkscape="http://www.inkscape.org/namespaces/inkscape"
   width="16"
   height="16"
   id="svg2"
   sodipodi:version="0.32"
   inkscape:version="0.47 r22583"
   version="1.0"
   sodipodi:docname="application-x-php.svg"
   inkscape:output_extension="org.inkscape.output.svg.inkscape"
   style="display:inline">
  <defs
     id="defs4">
    <inkscape:perspective
       sodipodi:type="inkscape:persp3d"
       inkscape:vp_x="0 : 8 : 1"
       inkscape:vp_y="0 : 1000 : 0"
       inkscape:vp_z="16 : 8 : 1"
       inkscape:persp3d-origin="8 : 5.3333333 : 1"
       id="perspective26" />
    <linearGradient
       inkscape:collect="always"
       id="linearGradient3327">
      <stop
         style="stop-color:#000000;stop-opacity:1;"
         offset="0"
         id="stop3330" />
      <stop
         style="stop-color:#000000;stop-opacity:0;"
         offset="1"
         id="stop3333" />
    </linearGradient>
    <linearGradient
       id="ButtonColor"
       x1="10.31979"
       y1="21"
       x2="10.31979"
       y2="0.99929649"
       gradientUnits="userSpaceOnUse">
      <stop
         style="stop-color:#e6e6e6;stop-opacity:1;"
         offset="0"
         id="stop3189" />
      <stop
         style="stop-color:#f5f5f5;stop-opacity:1;"
         offset="1"
         id="stop3191" />
    </linearGradient>
    <linearGradient
       inkscape:collect="always"
       xlink:href="#linearGradient3327"
       id="linearGradient3192"
       x1="9.0574636"
       y1="10.202822"
       x2="9.0574636"
       y2="-12.198761"
       gradientUnits="userSpaceOnUse"
       gradientTransform="translate(0,5.8006549)" />
    <linearGradient
       inkscape:collect="always"
       xlink:href="#ButtonColor"
       id="linearGradient3204"
       x1="1"
       y1="9"
       x2="15"
       y2="9"
       gradientUnits="userSpaceOnUse"
       gradientTransform="translate(-16,-1)" />
    <linearGradient
       inkscape:collect="always"
       xlink:href="#ButtonColor"
       id="linearGradient3173"
       gradientUnits="userSpaceOnUse"
       gradientTransform="translate(-16,-1)"
       x1="1"
       y1="9"
       x2="15"
       y2="9" />
    <linearGradient
       inkscape:collect="always"
       xlink:href="#ButtonColor"
       id="linearGradient3177"
       gradientUnits="userSpaceOnUse"
       gradientTransform="translate(-16,-1)"
       x1="1"
       y1="9"
       x2="15"
       y2="9" />
    <linearGradient
       inkscape:collect="always"
       xlink:href="#ButtonColor"
       id="linearGradient3179"
       gradientUnits="userSpaceOnUse"
       gradientTransform="matrix(0,-1,1,0,-1,16)"
       x1="1"
       y1="9"
       x2="15"
       y2="9" />
    <linearGradient
       inkscape:collect="always"
       xlink:href="#linearGradient3327"
       id="linearGradient3612"
       x1="8"
       y1="15"
       x2="8"
       y2="-1"
       gradientUnits="userSpaceOnUse" />
    <inkscape:perspective
       id="perspective3752"
       inkscape:persp3d-origin="0.5 : 0.33333333 : 1"
       inkscape:vp_z="1 : 0.5 : 1"
       inkscape:vp_y="0 : 1000 : 0"
       inkscape:vp_x="0 : 0.5 : 1"
       sodipodi:type="inkscape:persp3d" />
    <linearGradient
       inkscape:collect="always"
       xlink:href="#ButtonColor-5"
       id="linearGradient3204-0"
       x1="1"
       y1="9"
       x2="16.955648"
       y2="9"
       gradientUnits="userSpaceOnUse"
       gradientTransform="translate(-17,-2)" />
    <linearGradient
       id="ButtonColor-5"
       x1="10.31979"
       y1="21"
       x2="10.31979"
       y2="0.99929649"
       gradientUnits="userSpaceOnUse">
      <stop
         style="stop-color:#e6e6e6;stop-opacity:1;"
         offset="0"
         id="stop3189-0" />
      <stop
         style="stop-color:#f5f5f5;stop-opacity:1;"
         offset="1"
         id="stop3191-2" />
    </linearGradient>
    <linearGradient
       y2="-19.30397"
       x2="9.0574636"
       y1="10.202822"
       x1="9.0574636"
       gradientTransform="translate(-0.499722,5.300655)"
       gradientUnits="userSpaceOnUse"
       id="linearGradient2897"
       xlink:href="#linearGradient3327-7"
       inkscape:collect="always" />
    <linearGradient
       inkscape:collect="always"
       id="linearGradient3327-7">
      <stop
         style="stop-color:#000000;stop-opacity:1;"
         offset="0"
         id="stop3330-6" />
      <stop
         style="stop-color:#000000;stop-opacity:0;"
         offset="1"
         id="stop3333-8" />
    </linearGradient>
    <linearGradient
       y2="9"
       x2="16.955648"
       y1="9"
       x1="1"
       gradientTransform="translate(-17,-2)"
       gradientUnits="userSpaceOnUse"
       id="linearGradient3767"
       xlink:href="#ButtonColor-5"
       inkscape:collect="always" />
    <inkscape:perspective
       id="perspective3842"
       inkscape:persp3d-origin="0.5 : 0.33333333 : 1"
       inkscape:vp_z="1 : 0.5 : 1"
       inkscape:vp_y="0 : 1000 : 0"
       inkscape:vp_x="0 : 0.5 : 1"
       sodipodi:type="inkscape:persp3d" />
    <inkscape:perspective
       id="perspective3857"
       inkscape:persp3d-origin="0.5 : 0.33333333 : 1"
       inkscape:vp_z="1 : 0.5 : 1"
       inkscape:vp_y="0 : 1000 : 0"
       inkscape:vp_x="0 : 0.5 : 1"
       sodipodi:type="inkscape:persp3d" />
    <linearGradient
       inkscape:collect="always"
       xlink:href="#linearGradient3736"
       id="linearGradient2911"
       gradientUnits="userSpaceOnUse"
       x1="180.27818"
       y1="155.08972"
       x2="180.27818"
       y2="3.4033673" />
    <linearGradient
       id="linearGradient3736">
      <stop
         style="stop-color:#5368aa;stop-opacity:1;"
         offset="0"
         id="stop3738" />
      <stop
         style="stop-color:#8292c2;stop-opacity:1;"
         offset="1"
         id="stop3740" />
    </linearGradient>
    <linearGradient
       y2="3.4033673"
       x2="180.27818"
       y1="155.08972"
       x1="180.27818"
       gradientUnits="userSpaceOnUse"
       id="linearGradient3866"
       xlink:href="#linearGradient3736"
       inkscape:collect="always" />
    <inkscape:perspective
       id="perspective3876"
       inkscape:persp3d-origin="0.5 : 0.33333333 : 1"
       inkscape:vp_z="1 : 0.5 : 1"
       inkscape:vp_y="0 : 1000 : 0"
       inkscape:vp_x="0 : 0.5 : 1"
       sodipodi:type="inkscape:persp3d" />
    <linearGradient
       inkscape:collect="always"
       xlink:href="#linearGradient3798"
       id="linearGradient3704"
       gradientUnits="userSpaceOnUse"
       gradientTransform="matrix(0.06164384,0,0,-0.06578947,2.753425,15.263158)"
       x1="68.888885"
       y1="156.00002"
       x2="149.99998"
       y2="-41.600002" />
    <linearGradient
       gradientUnits="userSpaceOnUse"
       id="linearGradient3798"
       y2="84"
       x2="299"
       y1="84"
       x1="150">
      <stop
         offset="0"
         style="stop-color:#dddce9;stop-opacity:1"
         id="stop3800" />
      <stop
         offset="0.37"
         style="stop-color:#5664a3;stop-opacity:1"
         id="stop3802" />
      <stop
         offset="1"
         style="stop-color:#3b446f;stop-opacity:1;"
         id="stop3804" />
    </linearGradient>
    <linearGradient
       y2="-41.600002"
       x2="149.99998"
       y1="156.00002"
       x1="68.888885"
       gradientTransform="matrix(0.04782475,0,0,-0.0657943,0.79610159,13.265127)"
       gradientUnits="userSpaceOnUse"
       id="linearGradient3886"
       xlink:href="#linearGradient3798"
       inkscape:collect="always" />
  </defs>
  <sodipodi:namedview
     id="base"
     pagecolor="#ffffff"
     bordercolor="#e7e7e7"
     borderopacity="1"
     inkscape:pageopacity="0.0"
     inkscape:pageshadow="2"
     inkscape:zoom="39.539262"
     inkscape:cx="10.735176"
     inkscape:cy="6.0581389"
     inkscape:document-units="px"
     inkscape:current-layer="layer1"
     showgrid="true"
     inkscape:showpageshadow="false"
     showguides="false"
     inkscape:guide-bbox="true"
     inkscape:window-width="1920"
     inkscape:window-height="1023"
     inkscape:window-x="0"
     inkscape:window-y="24"
     inkscape:window-maximized="1"
     inkscape:snap-global="false">
    <sodipodi:guide
       orientation="1,0"
       position="0,112"
       id="guide2383" />
    <sodipodi:guide
       orientation="0,1"
       position="26.278146,128"
       id="guide2385" />
    <sodipodi:guide
       orientation="1,0"
       position="128,54.082119"
       id="guide2387" />
    <sodipodi:guide
       orientation="0,1"
       position="78.156291,0"
       id="guide2389" />
    <sodipodi:guide
       orientation="0,1"
       position="60.863576,64.084768"
       id="guide2391" />
    <inkscape:grid
       type="xygrid"
       id="grid3672"
       visible="true"
       enabled="true" />
  </sodipodi:namedview>
  <metadata
     id="metadata7">
    <rdf:RDF>
      <cc:Work
         rdf:about="">
        <dc:format>image/svg+xml</dc:format>
        <dc:type
           rdf:resource="http://purl.org/dc/dcmitype/StillImage" />
        <dc:title></dc:title>
      </cc:Work>
    </rdf:RDF>
  </metadata>
  <g
     inkscape:label="Button"
     inkscape:groupmode="layer"
     id="layer1">
    <rect
       ry="2"
       rx="2"
       y="0"
       x="-16"
       height="16"
       width="16"
       id="rect3196"
       style="fill:url(#linearGradient3767);fill-opacity:1;fill-rule:nonzero;stroke:none;display:inline"
       transform="matrix(0,-1,1,0,0,0)" />
    <ellipse
       transform="matrix(0.04755932,0,0,0.06542912,0.86211696,2.7784837)"
       style="fill:url(#linearGradient3866);fill-opacity:1;stroke:none;display:inline"
       id="ellipse2909"
       ry="76"
       rx="146"
       cy="80"
       cx="150"
       sodipodi:cx="150"
       sodipodi:cy="80"
       sodipodi:rx="146"
       sodipodi:ry="76"
       d="m 296,80 c 0,41.97364 -65.36643,76 -146,76 C 69.366427,156 4,121.97364 4,80 4,38.026359 69.366427,4 150,4 230.63357,4 296,38.026359 296,80 z" />
    <path
       style="fill:url(#linearGradient3886);fill-opacity:1;stroke:none;display:inline"
       d="m 7.9698132,3.0012163 c -3.8562803,0 -6.98241289,2.2387407 -6.98241289,5.0003663 0,2.7616264 3.12613259,5.0003674 6.98241289,5.0003674 3.8562808,0 6.9824138,-2.238741 6.9824138,-5.0003674 0,-2.7616256 -3.126133,-5.0003663 -6.9824138,-5.0003663 z M 7.2909674,3.9700374 c 0.2225419,-0.016461 0.4500297,0 0.6788458,0 1.8305301,0 3.4711158,0.5307904 4.6064538,1.3438481 1.135337,0.8130576 1.672869,1.8024581 1.672869,2.6876971 0,0.8852389 -0.537532,1.8746393 -1.672869,2.6876974 -1.135338,0.813057 -2.7759237,1.343849 -4.6064538,1.343849 -1.8305302,0 -3.4711156,-0.530792 -4.6064529,-1.343849 C 2.228023,9.8762219 1.6904905,8.8868215 1.6904905,8.0015826 c 0,-0.885239 0.5375325,-1.8746395 1.6728698,-2.6876971 C 4.3567808,4.6024603 5.7331758,4.0852688 7.2909674,3.9700374 z"
       id="ellipse3685" />
    <path
       style="opacity:0.4;fill:url(#linearGradient2897);fill-opacity:1;fill-rule:nonzero;stroke:none;display:inline"
       d="M 2,0 C 0.892,0 0,0.892 0,2 l 0,12 c 0,1.108 0.892,2 2,2 l 12,0 c 1.108,0 2,-0.892 2,-2 L 16,2 C 16,0.892 15.108,0 14,0 L 2,0 z m 0.5,1 11,0 C 14.331,1 15,1.669 15,2.5 l 0,11 c 0,0.831 -0.669,1.5 -1.5,1.5 l -11,0 C 1.669,15 1,14.331 1,13.5 L 1,2.5 C 1,1.669 1.669,1 2.5,1 z"
       id="rect2410" />
    <path
       style="opacity:0.6;fill:#ffffff;fill-opacity:1;stroke:none;display:inline"
       d="M 2.5,1 C 1.669,1 1,1.669 1,2.5 l 0,1 C 1,2.669 1.669,2 2.5,2 l 11,0 C 14.331,2 15,2.669 15,3.5 l 0,-1 C 15,1.669 14.331,1 13.5,1 l -11,0 z"
       id="rect3770" />
    <path
       sodipodi:type="inkscape:offset"
       inkscape:radius="0.40781024"
       inkscape:original="M 7 5 L 7 7 L 7 7.25 L 7 9 L 8 9 L 8 7 L 8.75 7 C 8.8885 7 9 7.1115 9 7.25 L 9 9 L 10 9 L 10 7 C 10 6.446 9.554 6 9 6 L 8 6 L 8 5 L 7 5 z M 3 6 L 3 7 L 3 7.25 L 3 7.75 L 3 8 L 3 10 L 4 10 L 4 9 L 5 9 C 5.554 9 6 8.554 6 8 L 6 7 C 6 6.446 5.554 6 5 6 L 4 6 L 3 6 z M 11 6 L 11 7 L 11 7.25 L 11 7.75 L 11 8 L 11 10 L 12 10 L 12 9 L 13 9 C 13.554 9 14 8.554 14 8 L 14 7 C 14 6.446 13.554 6 13 6 L 12 6 L 11 6 z M 4 7 L 4.75 7 C 4.8885 7 5 7.1115 5 7.25 L 5 7.75 C 5 7.8885 4.8885 8 4.75 8 L 4 8 L 4 7 z M 12 7 L 12.75 7 C 12.8885 7 13 7.1115 13 7.25 L 13 7.75 C 13 7.8885 12.8885 8 12.75 8 L 12 8 L 12 7 z "
       style="color:#000000;fill:#ffffff;fill-opacity:1;fill-rule:nonzero;stroke:none;stroke-width:0.5;marker:none;visibility:visible;display:inline;overflow:visible;enable-background:accumulate"
       id="path2925"
       d="M 6.90625,4.59375 A 0.40785102,0.40785102 0 0 0 6.59375,5 l 0,2 0,0.25 0,1.75 A 0.40785102,0.40785102 0 0 0 7,9.40625 l 1,0 A 0.40785102,0.40785102 0 0 0 8.40625,9 l 0,-1.59375 0.1875,0 0,1.59375 A 0.40785102,0.40785102 0 0 0 9,9.40625 l 1,0 A 0.40785102,0.40785102 0 0 0 10.40625,9 l 0,-2 C 10.40625,6.2271271 9.7728729,5.59375 9,5.59375 l -0.59375,0 0,-0.59375 A 0.40785102,0.40785102 0 0 0 8,4.59375 l -1,0 a 0.40785102,0.40785102 0 0 0 -0.09375,0 z m -4,1 A 0.40785102,0.40785102 0 0 0 2.59375,6 l 0,1 0,0.25 0,0.5 0,0.25 0,2 A 0.40785102,0.40785102 0 0 0 3,10.40625 l 1,0 A 0.40785102,0.40785102 0 0 0 4.40625,10 l 0,-0.59375 0.59375,0 C 5.7728729,9.40625 6.40625,8.7728729 6.40625,8 l 0,-1 C 6.40625,6.2271271 5.7728729,5.59375 5,5.59375 l -1,0 -1,0 a 0.40785102,0.40785102 0 0 0 -0.09375,0 z m 8,0 A 0.40785102,0.40785102 0 0 0 10.59375,6 l 0,1 0,0.25 0,0.5 0,0.25 0,2 A 0.40785102,0.40785102 0 0 0 11,10.40625 l 1,0 A 0.40785102,0.40785102 0 0 0 12.40625,10 l 0,-0.59375 0.59375,0 c 0.772873,0 1.40625,-0.6333771 1.40625,-1.40625 l 0,-1 C 14.40625,6.2271271 13.772873,5.59375 13,5.59375 l -1,0 -1,0 a 0.40785102,0.40785102 0 0 0 -0.09375,0 z m -6.5,1.8125 0.1875,0 0,0.1875 -0.1875,0 0,-0.1875 z m 8,0 0.1875,0 0,0.1875 -0.1875,0 0,-0.1875 z" />
    <path
       style="color:#000000;fill:#000000;fill-opacity:1;fill-rule:nonzero;stroke:none;stroke-width:0.50000000000000000;marker:none;visibility:visible;display:inline;overflow:visible;enable-background:accumulate"
       d="M 3,6 3,7 3,7.25 3,7.75 3,8 3,10 4,10 4,9 5,9 C 5.554,9 6,8.554 6,8 L 6,7 C 6,6.446 5.554,6 5,6 L 4,6 3,6 z M 4,7 4.75,7 C 4.8885,7 5,7.1115 5,7.25 l 0,0.5 C 5,7.8885 4.8885,8 4.75,8 L 4,8 4,7 z"
       id="rect3793" />
    <path
       style="color:#000000;fill:#000000;fill-opacity:1;fill-rule:nonzero;stroke:none;stroke-width:0.50000000000000000;marker:none;visibility:visible;display:inline;overflow:visible;enable-background:accumulate"
       d="M 7,5 7,7 7,7.25 7,9 8,9 8,7 8.75,7 C 8.8885,7 9,7.1115 9,7.25 L 9,9 10,9 10,7 C 10,6.446 9.554,6 9,6 L 8,6 8,5 7,5 z"
       id="rect3800" />
    <path
       id="path3813"
       d="m 11,6 0,1 0,0.25 0,0.5 0,0.25 0,2 1,0 0,-1 1,0 c 0.554,0 1,-0.446 1,-1 L 14,7 C 14,6.446 13.554,6 13,6 l -1,0 -1,0 z m 1,1 0.75,0 C 12.8885,7 13,7.1115 13,7.25 l 0,0.5 C 13,7.8885 12.8885,8 12.75,8 L 12,8 12,7 z"
       style="color:#000000;fill:#000000;fill-opacity:1;fill-rule:nonzero;stroke:none;stroke-width:0.50000000000000000;marker:none;visibility:visible;display:inline;overflow:visible;enable-background:accumulate" />
  </g>
  <g
     inkscape:groupmode="layer"
     id="layer2"
     inkscape:label="Symbol"
     sodipodi:insensitive="true" />
</svg>
