<?xml version="1.0" encoding="UTF-8" standalone="no"?>
<!-- Created with Inkscape (http://www.inkscape.org/) -->

<svg
   xmlns:dc="http://purl.org/dc/elements/1.1/"
   xmlns:cc="http://creativecommons.org/ns#"
   xmlns:rdf="http://www.w3.org/1999/02/22-rdf-syntax-ns#"
   xmlns:svg="http://www.w3.org/2000/svg"
   xmlns="http://www.w3.org/2000/svg"
   xmlns:xlink="http://www.w3.org/1999/xlink"
   xmlns:sodipodi="http://sodipodi.sourceforge.net/DTD/sodipodi-0.dtd"
   xmlns:inkscape="http://www.inkscape.org/namespaces/inkscape"
   width="16"
   height="16"
   id="svg2"
   sodipodi:version="0.32"
   inkscape:version="0.47 r22583"
   version="1.0"
   sodipodi:docname="application-x-cd-image.svg"
   inkscape:output_extension="org.inkscape.output.svg.inkscape"
   style="display:inline">
  <defs
     id="defs4">
    <inkscape:perspective
       sodipodi:type="inkscape:persp3d"
       inkscape:vp_x="0 : 8 : 1"
       inkscape:vp_y="0 : 1000 : 0"
       inkscape:vp_z="16 : 8 : 1"
       inkscape:persp3d-origin="8 : 5.3333333 : 1"
       id="perspective26" />
    <linearGradient
       inkscape:collect="always"
       id="linearGradient3327">
      <stop
         style="stop-color:#000000;stop-opacity:1;"
         offset="0"
         id="stop3330" />
      <stop
         style="stop-color:#000000;stop-opacity:0;"
         offset="1"
         id="stop3333" />
    </linearGradient>
    <linearGradient
       id="ButtonColor"
       x1="10.31979"
       y1="21"
       x2="10.31979"
       y2="0.99929649"
       gradientUnits="userSpaceOnUse">
      <stop
         style="stop-color:#e6e6e6;stop-opacity:1;"
         offset="0"
         id="stop3189" />
      <stop
         style="stop-color:#f5f5f5;stop-opacity:1;"
         offset="1"
         id="stop3191" />
    </linearGradient>
    <linearGradient
       inkscape:collect="always"
       xlink:href="#linearGradient3327"
       id="linearGradient3192"
       x1="9.0574636"
       y1="10.202822"
       x2="9.0574636"
       y2="-12.198761"
       gradientUnits="userSpaceOnUse"
       gradientTransform="translate(0,5.8006549)" />
    <linearGradient
       inkscape:collect="always"
       xlink:href="#ButtonColor"
       id="linearGradient3204"
       x1="1"
       y1="9"
       x2="15"
       y2="9"
       gradientUnits="userSpaceOnUse"
       gradientTransform="translate(-16,-1)" />
    <linearGradient
       inkscape:collect="always"
       xlink:href="#ButtonColor"
       id="linearGradient3173"
       gradientUnits="userSpaceOnUse"
       gradientTransform="translate(-16,-1)"
       x1="1"
       y1="9"
       x2="15"
       y2="9" />
    <linearGradient
       inkscape:collect="always"
       xlink:href="#ButtonColor"
       id="linearGradient3177"
       gradientUnits="userSpaceOnUse"
       gradientTransform="translate(-16,-1)"
       x1="1"
       y1="9"
       x2="15"
       y2="9" />
    <linearGradient
       inkscape:collect="always"
       xlink:href="#ButtonColor"
       id="linearGradient3179"
       gradientUnits="userSpaceOnUse"
       gradientTransform="matrix(0,-1,1,0,-1,16)"
       x1="1"
       y1="9"
       x2="15"
       y2="9" />
    <linearGradient
       inkscape:collect="always"
       xlink:href="#linearGradient3327"
       id="linearGradient3612"
       x1="8"
       y1="15"
       x2="8"
       y2="-1"
       gradientUnits="userSpaceOnUse" />
    <inkscape:perspective
       id="perspective3752"
       inkscape:persp3d-origin="0.5 : 0.33333333 : 1"
       inkscape:vp_z="1 : 0.5 : 1"
       inkscape:vp_y="0 : 1000 : 0"
       inkscape:vp_x="0 : 0.5 : 1"
       sodipodi:type="inkscape:persp3d" />
    <linearGradient
       inkscape:collect="always"
       xlink:href="#ButtonColor-5"
       id="linearGradient3204-0"
       x1="1"
       y1="9"
       x2="16.955648"
       y2="9"
       gradientUnits="userSpaceOnUse"
       gradientTransform="translate(-17,-2)" />
    <linearGradient
       id="ButtonColor-5"
       x1="10.31979"
       y1="21"
       x2="10.31979"
       y2="0.99929649"
       gradientUnits="userSpaceOnUse">
      <stop
         style="stop-color:#e6e6e6;stop-opacity:1;"
         offset="0"
         id="stop3189-0" />
      <stop
         style="stop-color:#f5f5f5;stop-opacity:1;"
         offset="1"
         id="stop3191-2" />
    </linearGradient>
    <linearGradient
       y2="-19.30397"
       x2="9.0574636"
       y1="10.202822"
       x1="9.0574636"
       gradientTransform="translate(-0.499722,5.300655)"
       gradientUnits="userSpaceOnUse"
       id="linearGradient2897"
       xlink:href="#linearGradient3327-7"
       inkscape:collect="always" />
    <linearGradient
       inkscape:collect="always"
       id="linearGradient3327-7">
      <stop
         style="stop-color:#000000;stop-opacity:1;"
         offset="0"
         id="stop3330-6" />
      <stop
         style="stop-color:#000000;stop-opacity:0;"
         offset="1"
         id="stop3333-8" />
    </linearGradient>
    <linearGradient
       y2="9"
       x2="16.955648"
       y1="9"
       x1="1"
       gradientTransform="translate(-17,-2)"
       gradientUnits="userSpaceOnUse"
       id="linearGradient3767"
       xlink:href="#ButtonColor-5"
       inkscape:collect="always" />
    <inkscape:perspective
       id="perspective4034"
       inkscape:persp3d-origin="0.5 : 0.33333333 : 1"
       inkscape:vp_z="1 : 0.5 : 1"
       inkscape:vp_y="0 : 1000 : 0"
       inkscape:vp_x="0 : 0.5 : 1"
       sodipodi:type="inkscape:persp3d" />
    <clipPath
       clipPathUnits="userSpaceOnUse"
       id="clipPath3271">
      <rect
         style="fill:#ffffff;fill-opacity:1;fill-rule:evenodd;stroke:none"
         id="rect3273"
         width="118"
         height="59"
         x="5"
         y="160.00336" />
    </clipPath>
    <linearGradient
       inkscape:collect="always"
       xlink:href="#linearGradient3236"
       id="linearGradient3809"
       gradientUnits="userSpaceOnUse"
       gradientTransform="matrix(-0.9850397,0.171492,-0.171492,-0.9850397,138.01803,271.06706)"
       x1="5"
       y1="64"
       x2="123"
       y2="64" />
    <linearGradient
       id="linearGradient3236">
      <stop
         id="stop3238"
         offset="0"
         style="stop-color:#ffffff;stop-opacity:0;" />
      <stop
         style="stop-color:#fffc2b;stop-opacity:0.234375;"
         offset="0.34999999"
         id="stop3240" />
      <stop
         style="stop-color:#46d15d;stop-opacity:0.21875;"
         offset="0.5"
         id="stop3242" />
      <stop
         id="stop3244"
         offset="0.64999998"
         style="stop-color:#46d1aa;stop-opacity:0;" />
      <stop
         id="stop3246"
         offset="1"
         style="stop-color:#ffffff;stop-opacity:0;" />
    </linearGradient>
    <linearGradient
       inkscape:collect="always"
       xlink:href="#linearGradient3265"
       id="linearGradient3811"
       gradientUnits="userSpaceOnUse"
       gradientTransform="matrix(-0.8529965,0.5216416,-0.5216416,-0.8529964,151.97682,240.20671)"
       x1="5"
       y1="64"
       x2="123"
       y2="64" />
    <linearGradient
       id="linearGradient3265">
      <stop
         style="stop-color:#ffffff;stop-opacity:0;"
         offset="0"
         id="stop3267" />
      <stop
         id="stop3252"
         offset="0.2"
         style="stop-color:#afcff3;stop-opacity:0;" />
      <stop
         id="stop3269"
         offset="0.34999999"
         style="stop-color:#60a0e7;stop-opacity:0.1484375;" />
      <stop
         id="stop3271"
         offset="0.5"
         style="stop-color:#db8ef1;stop-opacity:0.2109375;" />
      <stop
         style="stop-color:#ffffff;stop-opacity:0;"
         offset="0.64999998"
         id="stop3273" />
      <stop
         style="stop-color:#ffffff;stop-opacity:0;"
         offset="1"
         id="stop3275" />
    </linearGradient>
    <linearGradient
       inkscape:collect="always"
       xlink:href="#linearGradient3247"
       id="linearGradient3813"
       gradientUnits="userSpaceOnUse"
       gradientTransform="matrix(-0.881451,-0.4719713,0.4719713,-0.881451,90.206697,305.61903)"
       x1="5"
       y1="64"
       x2="123"
       y2="64" />
    <linearGradient
       id="linearGradient3247">
      <stop
         id="stop3249"
         offset="0"
         style="stop-color:#ffffff;stop-opacity:0;" />
      <stop
         id="stop3293"
         offset="0.30000001"
         style="stop-color:#d5d5d5;stop-opacity:0;" />
      <stop
         style="stop-color:#eb8888;stop-opacity:0.2578125;"
         offset="0.5"
         id="stop3251" />
      <stop
         id="stop3295"
         offset="0.69999999"
         style="stop-color:#e28f25;stop-opacity:0;" />
      <stop
         id="stop3253"
         offset="1"
         style="stop-color:#ffffff;stop-opacity:0;" />
    </linearGradient>
    <clipPath
       clipPathUnits="userSpaceOnUse"
       id="clipPath4062">
      <rect
         style="fill:#ffffff;fill-opacity:1;fill-rule:evenodd;stroke:none"
         id="rect4064"
         width="118"
         height="59"
         x="5"
         y="160.00336" />
    </clipPath>
    <linearGradient
       inkscape:collect="always"
       xlink:href="#linearGradient3236"
       id="linearGradient3815"
       gradientUnits="userSpaceOnUse"
       gradientTransform="matrix(-0.9850397,0.171492,-0.171492,-0.9850397,138.01803,271.06706)"
       x1="5"
       y1="64"
       x2="123"
       y2="64" />
    <linearGradient
       id="linearGradient4067">
      <stop
         id="stop4069"
         offset="0"
         style="stop-color:#ffffff;stop-opacity:0;" />
      <stop
         style="stop-color:#fffc2b;stop-opacity:0.234375;"
         offset="0.34999999"
         id="stop4071" />
      <stop
         style="stop-color:#46d15d;stop-opacity:0.21875;"
         offset="0.5"
         id="stop4073" />
      <stop
         id="stop4075"
         offset="0.64999998"
         style="stop-color:#46d1aa;stop-opacity:0;" />
      <stop
         id="stop4077"
         offset="1"
         style="stop-color:#ffffff;stop-opacity:0;" />
    </linearGradient>
    <linearGradient
       inkscape:collect="always"
       xlink:href="#linearGradient3265"
       id="linearGradient3817"
       gradientUnits="userSpaceOnUse"
       gradientTransform="matrix(-0.8529965,0.5216416,-0.5216416,-0.8529964,151.97682,240.20671)"
       x1="5"
       y1="64"
       x2="123"
       y2="64" />
    <linearGradient
       id="linearGradient4080">
      <stop
         style="stop-color:#ffffff;stop-opacity:0;"
         offset="0"
         id="stop4082" />
      <stop
         id="stop4084"
         offset="0.2"
         style="stop-color:#afcff3;stop-opacity:0;" />
      <stop
         id="stop4086"
         offset="0.34999999"
         style="stop-color:#60a0e7;stop-opacity:0.1484375;" />
      <stop
         id="stop4088"
         offset="0.5"
         style="stop-color:#db8ef1;stop-opacity:0.2109375;" />
      <stop
         style="stop-color:#ffffff;stop-opacity:0;"
         offset="0.64999998"
         id="stop4090" />
      <stop
         style="stop-color:#ffffff;stop-opacity:0;"
         offset="1"
         id="stop4092" />
    </linearGradient>
    <linearGradient
       inkscape:collect="always"
       xlink:href="#linearGradient3247"
       id="linearGradient3819"
       gradientUnits="userSpaceOnUse"
       gradientTransform="matrix(-0.881451,-0.4719713,0.4719713,-0.881451,90.206697,305.61903)"
       x1="5"
       y1="64"
       x2="123"
       y2="64" />
    <linearGradient
       id="linearGradient4095">
      <stop
         id="stop4097"
         offset="0"
         style="stop-color:#ffffff;stop-opacity:0;" />
      <stop
         id="stop4099"
         offset="0.30000001"
         style="stop-color:#d5d5d5;stop-opacity:0;" />
      <stop
         style="stop-color:#eb8888;stop-opacity:0.2578125;"
         offset="0.5"
         id="stop4101" />
      <stop
         id="stop4103"
         offset="0.69999999"
         style="stop-color:#e28f25;stop-opacity:0;" />
      <stop
         id="stop4105"
         offset="1"
         style="stop-color:#ffffff;stop-opacity:0;" />
    </linearGradient>
    <clipPath
       clipPathUnits="userSpaceOnUse"
       id="clipPath4107">
      <rect
         style="fill:#ffffff;fill-opacity:1;fill-rule:evenodd;stroke:none"
         id="rect4109"
         width="118"
         height="59"
         x="5"
         y="160.00336" />
    </clipPath>
    <linearGradient
       inkscape:collect="always"
       xlink:href="#linearGradient3236"
       id="linearGradient4111"
       gradientUnits="userSpaceOnUse"
       gradientTransform="matrix(-0.9850397,0.171492,-0.171492,-0.9850397,138.01803,271.06706)"
       x1="5"
       y1="64"
       x2="123"
       y2="64" />
    <linearGradient
       id="linearGradient4113">
      <stop
         id="stop4115"
         offset="0"
         style="stop-color:#ffffff;stop-opacity:0;" />
      <stop
         style="stop-color:#fffc2b;stop-opacity:0.234375;"
         offset="0.34999999"
         id="stop4117" />
      <stop
         style="stop-color:#46d15d;stop-opacity:0.21875;"
         offset="0.5"
         id="stop4119" />
      <stop
         id="stop4121"
         offset="0.64999998"
         style="stop-color:#46d1aa;stop-opacity:0;" />
      <stop
         id="stop4123"
         offset="1"
         style="stop-color:#ffffff;stop-opacity:0;" />
    </linearGradient>
    <linearGradient
       inkscape:collect="always"
       xlink:href="#linearGradient3265"
       id="linearGradient4125"
       gradientUnits="userSpaceOnUse"
       gradientTransform="matrix(-0.8529965,0.5216416,-0.5216416,-0.8529964,151.97682,240.20671)"
       x1="5"
       y1="64"
       x2="123"
       y2="64" />
    <linearGradient
       id="linearGradient4127">
      <stop
         style="stop-color:#ffffff;stop-opacity:0;"
         offset="0"
         id="stop4129" />
      <stop
         id="stop4131"
         offset="0.2"
         style="stop-color:#afcff3;stop-opacity:0;" />
      <stop
         id="stop4133"
         offset="0.34999999"
         style="stop-color:#60a0e7;stop-opacity:0.1484375;" />
      <stop
         id="stop4135"
         offset="0.5"
         style="stop-color:#db8ef1;stop-opacity:0.2109375;" />
      <stop
         style="stop-color:#ffffff;stop-opacity:0;"
         offset="0.64999998"
         id="stop4137" />
      <stop
         style="stop-color:#ffffff;stop-opacity:0;"
         offset="1"
         id="stop4139" />
    </linearGradient>
    <linearGradient
       inkscape:collect="always"
       xlink:href="#linearGradient3247"
       id="linearGradient4141"
       gradientUnits="userSpaceOnUse"
       gradientTransform="matrix(-0.881451,-0.4719713,0.4719713,-0.881451,90.206697,305.61903)"
       x1="5"
       y1="64"
       x2="123"
       y2="64" />
    <linearGradient
       id="linearGradient4143">
      <stop
         id="stop4145"
         offset="0"
         style="stop-color:#ffffff;stop-opacity:0;" />
      <stop
         id="stop4147"
         offset="0.30000001"
         style="stop-color:#d5d5d5;stop-opacity:0;" />
      <stop
         style="stop-color:#eb8888;stop-opacity:0.2578125;"
         offset="0.5"
         id="stop4149" />
      <stop
         id="stop4151"
         offset="0.69999999"
         style="stop-color:#e28f25;stop-opacity:0;" />
      <stop
         id="stop4153"
         offset="1"
         style="stop-color:#ffffff;stop-opacity:0;" />
    </linearGradient>
    <clipPath
       clipPathUnits="userSpaceOnUse"
       id="clipPath4155">
      <rect
         style="fill:#ffffff;fill-opacity:1;fill-rule:evenodd;stroke:none"
         id="rect4157"
         width="118"
         height="59"
         x="5"
         y="160.00336" />
    </clipPath>
    <linearGradient
       inkscape:collect="always"
       xlink:href="#linearGradient3236"
       id="linearGradient4159"
       gradientUnits="userSpaceOnUse"
       gradientTransform="matrix(-0.9850397,0.171492,-0.171492,-0.9850397,138.01803,271.06706)"
       x1="5"
       y1="64"
       x2="123"
       y2="64" />
    <linearGradient
       id="linearGradient4161">
      <stop
         id="stop4163"
         offset="0"
         style="stop-color:#ffffff;stop-opacity:0;" />
      <stop
         style="stop-color:#fffc2b;stop-opacity:0.234375;"
         offset="0.34999999"
         id="stop4165" />
      <stop
         style="stop-color:#46d15d;stop-opacity:0.21875;"
         offset="0.5"
         id="stop4167" />
      <stop
         id="stop4169"
         offset="0.64999998"
         style="stop-color:#46d1aa;stop-opacity:0;" />
      <stop
         id="stop4171"
         offset="1"
         style="stop-color:#ffffff;stop-opacity:0;" />
    </linearGradient>
    <linearGradient
       inkscape:collect="always"
       xlink:href="#linearGradient3265"
       id="linearGradient4173"
       gradientUnits="userSpaceOnUse"
       gradientTransform="matrix(-0.8529965,0.5216416,-0.5216416,-0.8529964,151.97682,240.20671)"
       x1="5"
       y1="64"
       x2="123"
       y2="64" />
    <linearGradient
       id="linearGradient4175">
      <stop
         style="stop-color:#ffffff;stop-opacity:0;"
         offset="0"
         id="stop4177" />
      <stop
         id="stop4179"
         offset="0.2"
         style="stop-color:#afcff3;stop-opacity:0;" />
      <stop
         id="stop4181"
         offset="0.34999999"
         style="stop-color:#60a0e7;stop-opacity:0.1484375;" />
      <stop
         id="stop4183"
         offset="0.5"
         style="stop-color:#db8ef1;stop-opacity:0.2109375;" />
      <stop
         style="stop-color:#ffffff;stop-opacity:0;"
         offset="0.64999998"
         id="stop4185" />
      <stop
         style="stop-color:#ffffff;stop-opacity:0;"
         offset="1"
         id="stop4187" />
    </linearGradient>
    <linearGradient
       inkscape:collect="always"
       xlink:href="#linearGradient3247"
       id="linearGradient4189"
       gradientUnits="userSpaceOnUse"
       gradientTransform="matrix(-0.881451,-0.4719713,0.4719713,-0.881451,90.206697,305.61903)"
       x1="5"
       y1="64"
       x2="123"
       y2="64" />
    <linearGradient
       id="linearGradient4191">
      <stop
         id="stop4193"
         offset="0"
         style="stop-color:#ffffff;stop-opacity:0;" />
      <stop
         id="stop4195"
         offset="0.30000001"
         style="stop-color:#d5d5d5;stop-opacity:0;" />
      <stop
         style="stop-color:#eb8888;stop-opacity:0.2578125;"
         offset="0.5"
         id="stop4197" />
      <stop
         id="stop4199"
         offset="0.69999999"
         style="stop-color:#e28f25;stop-opacity:0;" />
      <stop
         id="stop4201"
         offset="1"
         style="stop-color:#ffffff;stop-opacity:0;" />
    </linearGradient>
    <linearGradient
       inkscape:collect="always"
       xlink:href="#linearGradient3233"
       id="linearGradient3985"
       gradientUnits="userSpaceOnUse"
       gradientTransform="matrix(0.08703673,0.05010201,-0.05025065,0.08677934,5.6383693,-0.73693634)"
       x1="5"
       y1="64"
       x2="123"
       y2="64" />
    <linearGradient
       id="linearGradient3233">
      <stop
         style="stop-color:#ffffff;stop-opacity:0;"
         offset="0"
         id="stop3235" />
      <stop
         id="stop3297"
         offset="0.15000001"
         style="stop-color:#ffffff;stop-opacity:0;" />
      <stop
         id="stop3241"
         offset="0.5"
         style="stop-color:#ffffff;stop-opacity:1;" />
      <stop
         style="stop-color:#ffffff;stop-opacity:0;"
         offset="0.85000002"
         id="stop3299" />
      <stop
         style="stop-color:#ffffff;stop-opacity:0;"
         offset="1"
         id="stop3237" />
    </linearGradient>
    <linearGradient
       inkscape:collect="always"
       xlink:href="#linearGradient4114"
       id="linearGradient3988"
       gradientUnits="userSpaceOnUse"
       gradientTransform="matrix(0.18141311,0,0,0.21728665,-2.8728725,-5.46682)"
       x1="73.015572"
       y1="89.130737"
       x2="73.015572"
       y2="34.606899" />
    <linearGradient
       gradientTransform="matrix(1.0172414,0,0,1.0172414,-1.1034483,-1.1034483)"
       gradientUnits="userSpaceOnUse"
       y2="5.4252338"
       x2="58.650177"
       y1="122"
       x1="58.650177"
       id="linearGradient4114">
      <stop
         id="stop4116"
         offset="0"
         style="stop-color:#b8abbd;stop-opacity:1;" />
      <stop
         id="stop4118"
         offset="1"
         style="stop-color:#dddbde;stop-opacity:1;" />
    </linearGradient>
    <linearGradient
       y2="64"
       x2="123"
       y1="64"
       x1="5"
       gradientTransform="matrix(-0.9850397,0.171492,-0.171492,-0.9850397,138.01803,271.06706)"
       gradientUnits="userSpaceOnUse"
       id="linearGradient4242"
       xlink:href="#linearGradient3236"
       inkscape:collect="always" />
    <linearGradient
       y2="64"
       x2="123"
       y1="64"
       x1="5"
       gradientTransform="matrix(-0.8529965,0.5216416,-0.5216416,-0.8529964,151.97682,240.20671)"
       gradientUnits="userSpaceOnUse"
       id="linearGradient4244"
       xlink:href="#linearGradient3265"
       inkscape:collect="always" />
    <linearGradient
       y2="64"
       x2="123"
       y1="64"
       x1="5"
       gradientTransform="matrix(-0.881451,-0.4719713,0.4719713,-0.881451,90.206697,305.61903)"
       gradientUnits="userSpaceOnUse"
       id="linearGradient4246"
       xlink:href="#linearGradient3247"
       inkscape:collect="always" />
    <linearGradient
       y2="64"
       x2="123"
       y1="64"
       x1="5"
       gradientTransform="matrix(-0.9850397,0.171492,-0.171492,-0.9850397,138.01803,271.06706)"
       gradientUnits="userSpaceOnUse"
       id="linearGradient4248"
       xlink:href="#linearGradient3236"
       inkscape:collect="always" />
    <linearGradient
       y2="64"
       x2="123"
       y1="64"
       x1="5"
       gradientTransform="matrix(-0.8529965,0.5216416,-0.5216416,-0.8529964,151.97682,240.20671)"
       gradientUnits="userSpaceOnUse"
       id="linearGradient4250"
       xlink:href="#linearGradient3265"
       inkscape:collect="always" />
    <linearGradient
       y2="64"
       x2="123"
       y1="64"
       x1="5"
       gradientTransform="matrix(-0.881451,-0.4719713,0.4719713,-0.881451,90.206697,305.61903)"
       gradientUnits="userSpaceOnUse"
       id="linearGradient4252"
       xlink:href="#linearGradient3247"
       inkscape:collect="always" />
  </defs>
  <sodipodi:namedview
     id="base"
     pagecolor="#ffffff"
     bordercolor="#e7e7e7"
     borderopacity="1"
     inkscape:pageopacity="0.0"
     inkscape:pageshadow="2"
     inkscape:zoom="28.04203"
     inkscape:cx="-0.45454175"
     inkscape:cy="7.964704"
     inkscape:document-units="px"
     inkscape:current-layer="layer2"
     showgrid="true"
     inkscape:showpageshadow="false"
     showguides="false"
     inkscape:guide-bbox="true"
     inkscape:window-width="1920"
     inkscape:window-height="1023"
     inkscape:window-x="0"
     inkscape:window-y="24"
     inkscape:window-maximized="1">
    <sodipodi:guide
       orientation="1,0"
       position="0,112"
       id="guide2383" />
    <sodipodi:guide
       orientation="0,1"
       position="26.278146,128"
       id="guide2385" />
    <sodipodi:guide
       orientation="1,0"
       position="128,54.082119"
       id="guide2387" />
    <sodipodi:guide
       orientation="0,1"
       position="78.156291,0"
       id="guide2389" />
    <sodipodi:guide
       orientation="0,1"
       position="60.863576,64.084768"
       id="guide2391" />
    <inkscape:grid
       type="xygrid"
       id="grid3672"
       visible="true"
       enabled="true" />
  </sodipodi:namedview>
  <metadata
     id="metadata7">
    <rdf:RDF>
      <cc:Work
         rdf:about="">
        <dc:format>image/svg+xml</dc:format>
        <dc:type
           rdf:resource="http://purl.org/dc/dcmitype/StillImage" />
        <dc:title></dc:title>
      </cc:Work>
    </rdf:RDF>
  </metadata>
  <g
     inkscape:label="Button"
     inkscape:groupmode="layer"
     id="layer1"
     sodipodi:insensitive="true">
    <rect
       ry="2"
       rx="2"
       y="0"
       x="-16"
       height="16"
       width="16"
       id="rect3196"
       style="fill:url(#linearGradient3767);fill-opacity:1;fill-rule:nonzero;stroke:none;display:inline"
       transform="matrix(0,-1,1,0,0,0)" />
    <path
       style="opacity:0.4;fill:url(#linearGradient2897);fill-opacity:1;fill-rule:nonzero;stroke:none;display:inline"
       d="M 2,0 C 0.892,0 0,0.892 0,2 l 0,12 c 0,1.108 0.892,2 2,2 l 12,0 c 1.108,0 2,-0.892 2,-2 L 16,2 C 16,0.892 15.108,0 14,0 L 2,0 z m 0.5,1 11,0 C 14.331,1 15,1.669 15,2.5 l 0,11 c 0,0.831 -0.669,1.5 -1.5,1.5 l -11,0 C 1.669,15 1,14.331 1,13.5 L 1,2.5 C 1,1.669 1.669,1 2.5,1 z"
       id="rect2410" />
    <path
       style="opacity:0.6;fill:#ffffff;fill-opacity:1;stroke:none;display:inline"
       d="M 2.5,1 C 1.669,1 1,1.669 1,2.5 l 0,1 C 1,2.669 1.669,2 2.5,2 l 11,0 C 14.331,2 15,2.669 15,3.5 l 0,-1 C 15,1.669 14.331,1 13.5,1 l -11,0 z"
       id="rect3770" />
  </g>
  <g
     inkscape:groupmode="layer"
     id="layer2"
     inkscape:label="Disc">
    <path
       transform="matrix(0.74124437,0,0,0.74123782,-0.90215828,-0.88895962)"
       sodipodi:type="arc"
       style="color:#000000;fill:#e6e6e6;fill-opacity:1;fill-rule:nonzero;stroke:none;stroke-width:0.5;marker:none;visibility:visible;display:inline;overflow:visible;enable-background:accumulate"
       id="path3932"
       sodipodi:cx="12"
       sodipodi:cy="12"
       sodipodi:rx="4"
       sodipodi:ry="4"
       d="m 16,12 a 4,4 0 1 1 -8,0 4,4 0 1 1 8,0 z" />
    <path
       style="opacity:0.4;fill:#000000;fill-opacity:1;fill-rule:evenodd;stroke:none;display:inline"
       d="m 7.9927742,5.7821808 c -1.2281337,0 -2.2237331,0.9955906 -2.2237331,2.2237135 0,0.07276 0.01633,0.1375018 0.023164,0.2084731 0.1084625,-1.1269194 1.0451983,-2.0152403 2.2005692,-2.0152403 1.1553709,0 2.0921068,0.8883209 2.2005688,2.0152403 0.0068,-0.070971 0.02316,-0.135711 0.02316,-0.2084731 0,-1.2281229 -0.9955991,-2.2237135 -2.2237328,-2.2237135 z"
       id="path3137"
       sodipodi:nodetypes="cscscsc" />
    <path
       style="opacity:0.3;fill:#ffffff;fill-opacity:1;fill-rule:evenodd;stroke:none;display:inline"
       d="m 7.9926756,5.2574969 c -1.5115485,0 -2.73866,1.2234816 -2.73866,2.7305535 0,1.5070774 1.2271123,2.7305656 2.73866,2.7305656 1.5115478,0 2.7386604,-1.2234882 2.7386604,-2.7305656 0,-1.5070719 -1.2271126,-2.7305535 -2.7386604,-2.7305535 z m 0,1.9289235 c 0.4438134,0 0.8040115,0.3591363 0.8040115,0.80163 0,0.4425049 -0.3601974,0.8016361 -0.8040115,0.8016361 -0.4438134,0 -0.8040092,-0.3591312 -0.8040092,-0.8016361 0,-0.4424937 0.3601958,-0.80163 0.8040092,-0.80163 z"
       id="path3307" />
    <path
       style="fill:url(#linearGradient3988);fill-opacity:1;fill-rule:evenodd;stroke:none;display:inline"
       d="m 7.9927742,2.075992 c -3.2731261,0 -5.9299549,2.6433025 -5.9299549,5.9067386 0,3.2634464 2.6568294,5.9067384 5.9299549,5.9067384 3.2731258,0 5.9299548,-2.643292 5.9299548,-5.9067384 0,-3.2634361 -2.656829,-5.9067386 -5.9299548,-5.9067386 z m 0,3.7061892 c 1.2281337,0 2.2237328,0.9955906 2.2237328,2.2237131 0,1.2281228 -0.9955991,2.2237137 -2.2237328,2.2237137 -1.2281337,0 -2.2237331,-0.9955909 -2.2237331,-2.2237137 0,-1.2281225 0.9955994,-2.2237131 2.2237331,-2.2237131 z"
       id="path3170" />
    <path
       style="opacity:0.8;fill:url(#linearGradient3985);fill-opacity:1;fill-rule:evenodd;stroke:none;display:inline"
       d="M 7.5758242,2.1223194 C 5.6768236,2.2563684 3.8732434,3.2977191 2.8503914,5.064107 1.2138283,7.8903271 2.1931864,11.516513 5.0277967,13.148232 7.8624071,14.779956 11.498593,13.797066 13.135157,10.970846 14.77172,8.144614 13.792363,4.5416086 10.957752,2.9098846 9.8947724,2.2979881 8.7152251,2.04189 7.5758242,2.1223194 z m 0.41695,3.6598618 c 1.2281337,0 2.2237328,0.9955906 2.2237328,2.2237131 0,1.2281228 -0.9955991,2.2237137 -2.2237328,2.2237137 -1.2281337,0 -2.2237331,-0.9955909 -2.2237331,-2.2237137 0,-1.2281225 0.9955994,-2.2237131 2.2237331,-2.2237131 z"
       id="path3230" />
    <g
       style="display:inline"
       id="g3289"
       transform="matrix(0.06173194,-0.07907288,0.07930749,0.06154939,-13.32664,-0.4305207)">
      <g
         clip-path="url(#clipPath3271)"
         id="g3266">
        <path
           id="path3259"
           d="M 74.118027,277.11735 C 106.19881,271.5322 127.70249,240.96275 122.11734,208.88198 116.5322,176.8012 85.962749,155.29751 53.881978,160.88266 21.801203,166.46781 0.29750806,197.03725 5.8826547,229.11804 11.4678,261.19881 42.037246,282.70249 74.118027,277.11735 z m -6.516698,-37.43151 c -11.41858,1.98793 -22.299227,-5.66593 -24.287158,-17.08451 -1.987941,-11.41857 5.665921,-22.29923 17.084499,-24.28716 11.41858,-1.98793 22.299233,5.66593 24.28717,17.08451 1.987924,11.41857 -5.665932,22.29923 -17.084511,24.28716 z"
           style="fill:url(#linearGradient4242);fill-opacity:1;fill-rule:evenodd;stroke:none;display:inline" />
        <path
           style="fill:url(#linearGradient4244);fill-opacity:1;fill-rule:evenodd;stroke:none;display:inline"
           d="M 94.776853,269.3268 C 122.55724,252.33798 131.31561,216.00355 114.32679,188.22315 97.337964,160.44278 61.003543,151.6844 33.223145,168.67322 5.4427579,185.66204 -3.3156068,221.99648 13.673211,249.77686 30.662035,277.55725 66.996455,286.31562 94.776853,269.3268 z M 74.954469,236.91293 c -9.88793,6.04687 -22.820523,2.92947 -28.867393,-6.95846 -6.046863,-9.88793 -2.929476,-22.82053 6.958454,-28.86739 9.887938,-6.04686 22.820537,-2.92949 28.867401,6.95845 6.046855,9.88793 2.929476,22.82053 -6.958462,28.8674 z"
           id="path3231" />
        <path
           style="fill:url(#linearGradient4246);fill-opacity:1;fill-rule:evenodd;stroke:none;display:inline"
           d="m 36.153689,271.00561 c 28.707102,15.37117 64.480751,4.54779 79.851921,-24.1593 15.37116,-28.70708 4.5478,-64.48074 -24.159308,-79.85191 -28.707087,-15.37116 -64.480736,-4.5478 -79.851909,24.15931 -15.371173,28.70708 -4.5478122,64.48073 24.159296,79.8519 z m 17.934913,-33.49512 c -10.217773,-5.4711 -14.070163,-18.2041 -8.599064,-28.42189 5.471077,-10.21777 18.204079,-14.07015 28.421859,-8.59906 10.217787,5.47108 14.07017,18.2041 8.599071,28.42186 -5.471084,10.21778 -18.204093,14.07016 -28.421866,8.59909 z"
           id="path3243" />
      </g>
      <g
         transform="matrix(1,0,0,-1,0,438.00336)"
         id="g3275"
         clip-path="url(#clipPath3271)">
        <path
           style="fill:url(#linearGradient4248);fill-opacity:1;fill-rule:evenodd;stroke:none;display:inline"
           d="M 74.118027,277.11735 C 106.19881,271.5322 127.70249,240.96275 122.11734,208.88198 116.5322,176.8012 85.962749,155.29751 53.881978,160.88266 21.801203,166.46781 0.29750806,197.03725 5.8826547,229.11804 11.4678,261.19881 42.037246,282.70249 74.118027,277.11735 z m -6.516698,-37.43151 c -11.41858,1.98793 -22.299227,-5.66593 -24.287158,-17.08451 -1.987941,-11.41857 5.665921,-22.29923 17.084499,-24.28716 11.41858,-1.98793 22.299233,5.66593 24.28717,17.08451 1.987924,11.41857 -5.665932,22.29923 -17.084511,24.28716 z"
           id="path3277" />
        <path
           id="path3279"
           d="M 94.776853,269.3268 C 122.55724,252.33798 131.31561,216.00355 114.32679,188.22315 97.337964,160.44278 61.003543,151.6844 33.223145,168.67322 5.4427579,185.66204 -3.3156068,221.99648 13.673211,249.77686 30.662035,277.55725 66.996455,286.31562 94.776853,269.3268 z M 74.954469,236.91293 c -9.88793,6.04687 -22.820523,2.92947 -28.867393,-6.95846 -6.046863,-9.88793 -2.929476,-22.82053 6.958454,-28.86739 9.887938,-6.04686 22.820537,-2.92949 28.867401,6.95845 6.046855,9.88793 2.929476,22.82053 -6.958462,28.8674 z"
           style="fill:url(#linearGradient4250);fill-opacity:1;fill-rule:evenodd;stroke:none;display:inline" />
        <path
           id="path3281"
           d="m 36.153689,271.00561 c 28.707102,15.37117 64.480751,4.54779 79.851921,-24.1593 15.37116,-28.70708 4.5478,-64.48074 -24.159308,-79.85191 -28.707087,-15.37116 -64.480736,-4.5478 -79.851909,24.15931 -15.371173,28.70708 -4.5478122,64.48073 24.159296,79.8519 z m 17.934913,-33.49512 c -10.217773,-5.4711 -14.070163,-18.2041 -8.599064,-28.42189 5.471077,-10.21777 18.204079,-14.07015 28.421859,-8.59906 10.217787,5.47108 14.07017,18.2041 8.599071,28.42186 -5.471084,10.21778 -18.204093,14.07016 -28.421866,8.59909 z"
           style="fill:url(#linearGradient4252);fill-opacity:1;fill-rule:evenodd;stroke:none;display:inline" />
      </g>
    </g>
    <g
       transform="matrix(0.06173194,-0.07907288,0.07930749,0.06154939,-13.32664,-0.4305207)"
       id="g4008"
       style="display:inline">
      <g
         id="g4010"
         clip-path="url(#clipPath3271)">
        <path
           style="fill:url(#linearGradient3809);fill-opacity:1;fill-rule:evenodd;stroke:none;display:inline"
           d="M 74.118027,277.11735 C 106.19881,271.5322 127.70249,240.96275 122.11734,208.88198 116.5322,176.8012 85.962749,155.29751 53.881978,160.88266 21.801203,166.46781 0.29750806,197.03725 5.8826547,229.11804 11.4678,261.19881 42.037246,282.70249 74.118027,277.11735 z m -6.516698,-37.43151 c -11.41858,1.98793 -22.299227,-5.66593 -24.287158,-17.08451 -1.987941,-11.41857 5.665921,-22.29923 17.084499,-24.28716 11.41858,-1.98793 22.299233,5.66593 24.28717,17.08451 1.987924,11.41857 -5.665932,22.29923 -17.084511,24.28716 z"
           id="path4012" />
        <path
           id="path4014"
           d="M 94.776853,269.3268 C 122.55724,252.33798 131.31561,216.00355 114.32679,188.22315 97.337964,160.44278 61.003543,151.6844 33.223145,168.67322 5.4427579,185.66204 -3.3156068,221.99648 13.673211,249.77686 30.662035,277.55725 66.996455,286.31562 94.776853,269.3268 z M 74.954469,236.91293 c -9.88793,6.04687 -22.820523,2.92947 -28.867393,-6.95846 -6.046863,-9.88793 -2.929476,-22.82053 6.958454,-28.86739 9.887938,-6.04686 22.820537,-2.92949 28.867401,6.95845 6.046855,9.88793 2.929476,22.82053 -6.958462,28.8674 z"
           style="fill:url(#linearGradient3811);fill-opacity:1;fill-rule:evenodd;stroke:none;display:inline" />
        <path
           id="path4016"
           d="m 36.153689,271.00561 c 28.707102,15.37117 64.480751,4.54779 79.851921,-24.1593 15.37116,-28.70708 4.5478,-64.48074 -24.159308,-79.85191 -28.707087,-15.37116 -64.480736,-4.5478 -79.851909,24.15931 -15.371173,28.70708 -4.5478122,64.48073 24.159296,79.8519 z m 17.934913,-33.49512 c -10.217773,-5.4711 -14.070163,-18.2041 -8.599064,-28.42189 5.471077,-10.21777 18.204079,-14.07015 28.421859,-8.59906 10.217787,5.47108 14.07017,18.2041 8.599071,28.42186 -5.471084,10.21778 -18.204093,14.07016 -28.421866,8.59909 z"
           style="fill:url(#linearGradient3813);fill-opacity:1;fill-rule:evenodd;stroke:none;display:inline" />
      </g>
      <g
         clip-path="url(#clipPath3271)"
         id="g4018"
         transform="matrix(1,0,0,-1,0,438.00336)">
        <path
           id="path4020"
           d="M 74.118027,277.11735 C 106.19881,271.5322 127.70249,240.96275 122.11734,208.88198 116.5322,176.8012 85.962749,155.29751 53.881978,160.88266 21.801203,166.46781 0.29750806,197.03725 5.8826547,229.11804 11.4678,261.19881 42.037246,282.70249 74.118027,277.11735 z m -6.516698,-37.43151 c -11.41858,1.98793 -22.299227,-5.66593 -24.287158,-17.08451 -1.987941,-11.41857 5.665921,-22.29923 17.084499,-24.28716 11.41858,-1.98793 22.299233,5.66593 24.28717,17.08451 1.987924,11.41857 -5.665932,22.29923 -17.084511,24.28716 z"
           style="fill:url(#linearGradient3815);fill-opacity:1;fill-rule:evenodd;stroke:none;display:inline" />
        <path
           style="fill:url(#linearGradient3817);fill-opacity:1;fill-rule:evenodd;stroke:none;display:inline"
           d="M 94.776853,269.3268 C 122.55724,252.33798 131.31561,216.00355 114.32679,188.22315 97.337964,160.44278 61.003543,151.6844 33.223145,168.67322 5.4427579,185.66204 -3.3156068,221.99648 13.673211,249.77686 30.662035,277.55725 66.996455,286.31562 94.776853,269.3268 z M 74.954469,236.91293 c -9.88793,6.04687 -22.820523,2.92947 -28.867393,-6.95846 -6.046863,-9.88793 -2.929476,-22.82053 6.958454,-28.86739 9.887938,-6.04686 22.820537,-2.92949 28.867401,6.95845 6.046855,9.88793 2.929476,22.82053 -6.958462,28.8674 z"
           id="path4022" />
        <path
           style="fill:url(#linearGradient3819);fill-opacity:1;fill-rule:evenodd;stroke:none;display:inline"
           d="m 36.153689,271.00561 c 28.707102,15.37117 64.480751,4.54779 79.851921,-24.1593 15.37116,-28.70708 4.5478,-64.48074 -24.159308,-79.85191 -28.707087,-15.37116 -64.480736,-4.5478 -79.851909,24.15931 -15.371173,28.70708 -4.5478122,64.48073 24.159296,79.8519 z m 17.934913,-33.49512 c -10.217773,-5.4711 -14.070163,-18.2041 -8.599064,-28.42189 5.471077,-10.21777 18.204079,-14.07015 28.421859,-8.59906 10.217787,5.47108 14.07017,18.2041 8.599071,28.42186 -5.471084,10.21778 -18.204093,14.07016 -28.421866,8.59909 z"
           id="path4024" />
      </g>
    </g>
    <path
       style="opacity:0.15;color:#000000;fill:#000000;fill-opacity:1;fill-rule:nonzero;stroke:none;stroke-width:0.5;marker:none;visibility:visible;display:inline;overflow:visible;enable-background:accumulate"
       d="m 7.9927742,2.0759917 c -3.2750237,0 -5.9299549,2.6549078 -5.9299549,5.9299026 0,3.2749947 2.6549312,5.9299027 5.9299549,5.9299027 3.2750238,0 5.9299548,-2.654908 5.9299548,-5.9299027 0,-3.2749948 -2.654931,-5.9299026 -5.9299548,-5.9299026 z m 0,0.7412378 c 2.8656458,0 5.1887108,2.3230444 5.1887108,5.1886648 0,2.8656197 -2.323065,5.1886647 -5.1887108,5.1886647 -2.8656457,0 -5.1887106,-2.323045 -5.1887106,-5.1886647 0,-2.8656204 2.3230649,-5.1886648 5.1887106,-5.1886648 z"
       id="path3922" />
    <path
       style="opacity:0.2;color:#000000;fill:#ffffff;fill-opacity:1;fill-rule:nonzero;stroke:none;stroke-width:0.50000000000000000;marker:none;visibility:visible;display:inline;overflow:visible;enable-background:accumulate"
       d="m 7.9927742,2.8172295 c -2.8656457,0 -5.1887106,2.3230444 -5.1887106,5.1886648 0,0.1246947 0.014514,0.2481256 0.023164,0.3706189 0.1901504,-2.692536 2.4245971,-4.8180459 5.1655467,-4.8180459 2.7409498,0 4.9753958,2.1255099 5.1655468,4.8180459 0.0086,-0.1224933 0.02316,-0.2459242 0.02316,-0.3706189 0,-2.8656204 -2.323065,-5.1886648 -5.1887108,-5.1886648 z"
       id="path3927" />
    <path
       style="opacity:0.3;color:#000000;fill:#000000;fill-opacity:1;fill-rule:nonzero;stroke:none;stroke-width:0.5;marker:none;visibility:visible;display:inline;overflow:visible;enable-background:accumulate"
       d="m 7.9927742,2.0759917 c -3.2750237,0 -5.9299549,2.6549078 -5.9299549,5.9299026 0,0.062887 -0.00194,0.1228935 0,0.1853094 0.099268,-3.1880143 2.7178194,-5.7445931 5.9299549,-5.7445931 3.2121358,0 5.8306868,2.5565788 5.9299548,5.7445931 0.0019,-0.06242 0,-0.1224221 0,-0.1853094 0,-3.2749948 -2.654931,-5.9299026 -5.9299548,-5.9299026 z"
       id="path3938"
       sodipodi:nodetypes="cscscsc" />
    <path
       style="opacity:0.1;color:#000000;fill:#000000;fill-opacity:1;fill-rule:nonzero;stroke:none;stroke-width:0.50000000000000000;marker:none;visibility:visible;display:inline;overflow:visible;enable-background:accumulate"
       d="M 8 5 C 6.3431458 5 5 6.3431458 5 8 C 5 9.6568542 6.3431458 11 8 11 C 9.6568542 11 11 9.6568542 11 8 C 11 6.3431458 9.6568542 5 8 5 z M 8 6 C 9.1045695 6 10 6.8954305 10 8 C 10 9.1045695 9.1045695 10 8 10 C 6.8954305 10 6 9.1045695 6 8 C 6 6.8954305 6.8954305 6 8 6 z "
       id="path4067" />
    <path
       sodipodi:type="arc"
       style="opacity:0.2;color:#000000;fill:#000000;fill-opacity:1;fill-rule:nonzero;stroke:none;stroke-width:0.50000000000000000;marker:none;visibility:visible;display:inline;overflow:visible;enable-background:accumulate"
       id="path4072"
       sodipodi:cx="8"
       sodipodi:cy="8"
       sodipodi:rx="1"
       sodipodi:ry="1"
       d="M 9,8 A 1,1 0 1 1 7,8 1,1 0 1 1 9,8 z" />
  </g>
</svg>
