<?xml version="1.0" encoding="UTF-8" standalone="no"?>
<!-- Created with Inkscape (http://www.inkscape.org/) -->

<svg
   xmlns:i="http://ns.adobe.com/AdobeIllustrator/10.0/"
   xmlns:dc="http://purl.org/dc/elements/1.1/"
   xmlns:cc="http://creativecommons.org/ns#"
   xmlns:rdf="http://www.w3.org/1999/02/22-rdf-syntax-ns#"
   xmlns:svg="http://www.w3.org/2000/svg"
   xmlns="http://www.w3.org/2000/svg"
   xmlns:xlink="http://www.w3.org/1999/xlink"
   xmlns:sodipodi="http://sodipodi.sourceforge.net/DTD/sodipodi-0.dtd"
   xmlns:inkscape="http://www.inkscape.org/namespaces/inkscape"
   width="16"
   height="16"
   id="svg2"
   sodipodi:version="0.32"
   inkscape:version="0.47 r22583"
   version="1.0"
   sodipodi:docname="deb.svg"
   inkscape:output_extension="org.inkscape.output.svg.inkscape"
   style="display:inline">
  <defs
     id="defs4">
    <inkscape:perspective
       sodipodi:type="inkscape:persp3d"
       inkscape:vp_x="0 : 8 : 1"
       inkscape:vp_y="0 : 1000 : 0"
       inkscape:vp_z="16 : 8 : 1"
       inkscape:persp3d-origin="8 : 5.3333333 : 1"
       id="perspective26" />
    <linearGradient
       inkscape:collect="always"
       id="linearGradient3327">
      <stop
         style="stop-color:#000000;stop-opacity:1;"
         offset="0"
         id="stop3330" />
      <stop
         style="stop-color:#000000;stop-opacity:0;"
         offset="1"
         id="stop3333" />
    </linearGradient>
    <linearGradient
       id="ButtonColor"
       x1="10.31979"
       y1="21"
       x2="10.31979"
       y2="0.99929649"
       gradientUnits="userSpaceOnUse">
      <stop
         style="stop-color:#e6e6e6;stop-opacity:1;"
         offset="0"
         id="stop3189" />
      <stop
         style="stop-color:#f5f5f5;stop-opacity:1;"
         offset="1"
         id="stop3191" />
    </linearGradient>
    <linearGradient
       inkscape:collect="always"
       xlink:href="#linearGradient3327"
       id="linearGradient3192"
       x1="9.0574636"
       y1="10.202822"
       x2="9.0574636"
       y2="-12.198761"
       gradientUnits="userSpaceOnUse"
       gradientTransform="translate(0,5.8006549)" />
    <linearGradient
       inkscape:collect="always"
       xlink:href="#ButtonColor"
       id="linearGradient3204"
       x1="1"
       y1="9"
       x2="15"
       y2="9"
       gradientUnits="userSpaceOnUse"
       gradientTransform="translate(-16,-1)" />
    <linearGradient
       inkscape:collect="always"
       xlink:href="#ButtonColor"
       id="linearGradient3173"
       gradientUnits="userSpaceOnUse"
       gradientTransform="translate(-16,-1)"
       x1="1"
       y1="9"
       x2="15"
       y2="9" />
    <linearGradient
       inkscape:collect="always"
       xlink:href="#ButtonColor"
       id="linearGradient3177"
       gradientUnits="userSpaceOnUse"
       gradientTransform="translate(-16,-1)"
       x1="1"
       y1="9"
       x2="15"
       y2="9" />
    <linearGradient
       inkscape:collect="always"
       xlink:href="#ButtonColor"
       id="linearGradient3179"
       gradientUnits="userSpaceOnUse"
       gradientTransform="matrix(0,-1,1,0,-1,16)"
       x1="1"
       y1="9"
       x2="15"
       y2="9" />
    <linearGradient
       inkscape:collect="always"
       xlink:href="#linearGradient3327"
       id="linearGradient3612"
       x1="8"
       y1="15"
       x2="8"
       y2="-1"
       gradientUnits="userSpaceOnUse" />
    <inkscape:perspective
       id="perspective3752"
       inkscape:persp3d-origin="0.5 : 0.33333333 : 1"
       inkscape:vp_z="1 : 0.5 : 1"
       inkscape:vp_y="0 : 1000 : 0"
       inkscape:vp_x="0 : 0.5 : 1"
       sodipodi:type="inkscape:persp3d" />
    <linearGradient
       inkscape:collect="always"
       xlink:href="#ButtonColor-5"
       id="linearGradient3204-0"
       x1="1"
       y1="9"
       x2="16.955648"
       y2="9"
       gradientUnits="userSpaceOnUse"
       gradientTransform="translate(-17,-2)" />
    <linearGradient
       id="ButtonColor-5"
       x1="10.31979"
       y1="21"
       x2="10.31979"
       y2="0.99929649"
       gradientUnits="userSpaceOnUse">
      <stop
         style="stop-color:#e6e6e6;stop-opacity:1;"
         offset="0"
         id="stop3189-0" />
      <stop
         style="stop-color:#f5f5f5;stop-opacity:1;"
         offset="1"
         id="stop3191-2" />
    </linearGradient>
    <linearGradient
       y2="-19.30397"
       x2="9.0574636"
       y1="10.202822"
       x1="9.0574636"
       gradientTransform="translate(-0.499722,5.300655)"
       gradientUnits="userSpaceOnUse"
       id="linearGradient2897"
       xlink:href="#linearGradient3327-7"
       inkscape:collect="always" />
    <linearGradient
       inkscape:collect="always"
       id="linearGradient3327-7">
      <stop
         style="stop-color:#000000;stop-opacity:1;"
         offset="0"
         id="stop3330-6" />
      <stop
         style="stop-color:#000000;stop-opacity:0;"
         offset="1"
         id="stop3333-8" />
    </linearGradient>
    <linearGradient
       y2="9"
       x2="16.955648"
       y1="9"
       x1="1"
       gradientTransform="translate(-17,-2)"
       gradientUnits="userSpaceOnUse"
       id="linearGradient3767"
       xlink:href="#ButtonColor-5"
       inkscape:collect="always" />
    <inkscape:perspective
       id="perspective2885"
       inkscape:persp3d-origin="0.5 : 0.33333333 : 1"
       inkscape:vp_z="1 : 0.5 : 1"
       inkscape:vp_y="0 : 1000 : 0"
       inkscape:vp_x="0 : 0.5 : 1"
       sodipodi:type="inkscape:persp3d" />
  </defs>
  <sodipodi:namedview
     id="base"
     pagecolor="#ffffff"
     bordercolor="#e7e7e7"
     borderopacity="1"
     inkscape:pageopacity="0.0"
     inkscape:pageshadow="2"
     inkscape:zoom="14.104939"
     inkscape:cx="-4.3394816"
     inkscape:cy="4.8913813"
     inkscape:document-units="px"
     inkscape:current-layer="layer1"
     showgrid="true"
     inkscape:showpageshadow="false"
     showguides="false"
     inkscape:guide-bbox="true"
     inkscape:window-width="1920"
     inkscape:window-height="1023"
     inkscape:window-x="0"
     inkscape:window-y="24"
     inkscape:window-maximized="1">
    <sodipodi:guide
       orientation="1,0"
       position="0,112"
       id="guide2383" />
    <sodipodi:guide
       orientation="0,1"
       position="26.278146,128"
       id="guide2385" />
    <sodipodi:guide
       orientation="1,0"
       position="128,54.082119"
       id="guide2387" />
    <sodipodi:guide
       orientation="0,1"
       position="78.156291,0"
       id="guide2389" />
    <sodipodi:guide
       orientation="0,1"
       position="60.863576,64.084768"
       id="guide2391" />
    <inkscape:grid
       type="xygrid"
       id="grid3672"
       visible="true"
       enabled="true" />
  </sodipodi:namedview>
  <metadata
     id="metadata7">
    <rdf:RDF>
      <cc:Work
         rdf:about="">
        <dc:format>image/svg+xml</dc:format>
        <dc:type
           rdf:resource="http://purl.org/dc/dcmitype/StillImage" />
        <dc:title></dc:title>
      </cc:Work>
    </rdf:RDF>
  </metadata>
  <g
     inkscape:label="Button"
     inkscape:groupmode="layer"
     id="layer1">
    <rect
       ry="2"
       rx="2"
       y="0"
       x="-16"
       height="16"
       width="16"
       id="rect3196"
       style="fill:url(#linearGradient3767);fill-opacity:1;fill-rule:nonzero;stroke:none;display:inline"
       transform="matrix(0,-1,1,0,0,0)" />
    <path
       style="opacity:0.4;fill:url(#linearGradient2897);fill-opacity:1;fill-rule:nonzero;stroke:none;display:inline"
       d="M 2,0 C 0.892,0 0,0.892 0,2 l 0,12 c 0,1.108 0.892,2 2,2 l 12,0 c 1.108,0 2,-0.892 2,-2 L 16,2 C 16,0.892 15.108,0 14,0 L 2,0 z m 0.5,1 11,0 C 14.331,1 15,1.669 15,2.5 l 0,11 c 0,0.831 -0.669,1.5 -1.5,1.5 l -11,0 C 1.669,15 1,14.331 1,13.5 L 1,2.5 C 1,1.669 1.669,1 2.5,1 z"
       id="rect2410" />
    <path
       style="opacity:0.6;fill:#ffffff;fill-opacity:1;stroke:none;display:inline"
       d="M 2.5,1 C 1.669,1 1,1.669 1,2.5 l 0,1 C 1,2.669 1.669,2 2.5,2 l 11,0 C 14.331,2 15,2.669 15,3.5 l 0,-1 C 15,1.669 14.331,1 13.5,1 l -11,0 z"
       id="rect3770" />
    <path
       i:knockout="Off"
       d="m 11.694652,7.1545994 c 0.01203,0.3229288 -0.09423,0.4798489 -0.190335,0.7573327 l -0.172826,0.085945 C 11.19021,8.27242 11.345521,8.1721728 11.244341,8.3904447 11.02353,8.5865278 10.575226,9.0038226 10.431672,9.04205 10.326747,9.0398 10.502648,8.918278 10.525638,8.8708278 10.230376,9.0734608 10.288654,9.1750448 9.8370067,9.2984148 L 9.8239144,9.268876 C 8.7105003,9.7928339 7.1637563,8.7546758 7.1840731,7.3383858 7.1723096,7.428207 7.150254,7.4057515 7.1256641,7.4418408 7.0681871,6.7132454 7.4622232,5.981442 8.1267943,5.6821714 8.7767953,5.3605788 9.5388069,5.4923703 10.004086,5.9266402 9.7485233,5.5916817 9.2394023,5.2365399 8.6364496,5.2694208 8.0455272,5.2790456 7.4925639,5.6545032 7.3081098,6.0623079 7.0054972,6.2527772 6.9702103,6.7969181 6.8384186,6.8966305 6.6607818,8.2011782 7.1721752,8.7645667 8.0373737,9.4276673 8.1731745,9.5193597 8.0755926,9.5333942 8.0937764,9.6031661 7.8064,9.4687014 7.5433524,9.2655342 7.3268187,9.0167879 7.4417684,9.184802 7.5656741,9.3481375 7.7259353,9.4764544 7.4547342,9.384895 7.0926412,8.8197691 6.9871818,8.7967793 7.4543337,9.6332401 8.8822512,10.263727 9.6303613,9.9508227 9.2841746,9.9636562 8.8445588,9.9579047 8.4558673,9.8142194 8.2921306,9.7301461 8.0703839,9.5562502 8.1100819,9.5237708 9.1307307,9.9048431 10.184794,9.8122151 11.06777,9.1044711 c 0.224821,-0.1750983 0.470225,-0.4727654 0.541199,-0.4767753 -0.106796,0.1606625 0.01831,0.077257 -0.06376,0.2190737 0.223485,-0.361023 -0.09744,-0.1470293 0.231236,-0.6234033 l 0.121368,0.1670786 c -0.04544,-0.2999389 0.372249,-0.6637694 0.329745,-1.137737 0.09584,-0.1448904 0.106796,0.1561181 0.0052,0.4894727 0.141015,-0.3698446 0.0373,-0.4293246 0.07338,-0.73461 0.0389,0.1026528 0.09062,0.2115881 0.116956,0.3199885 -0.09196,-0.3575476 0.09397,-0.6018832 0.140212,-0.8097286 -0.04571,-0.020051 -0.141817,0.1579894 -0.164005,-0.2641176 0.0034,-0.1833851 0.05119,-0.096103 0.0695,-0.1412813 -0.03582,-0.020717 -0.130321,-0.1613308 -0.187662,-0.4309286 0.0413,-0.06349 0.111207,0.1642717 0.16788,0.1734943 -0.03649,-0.2142613 -0.09918,-0.3777309 -0.10185,-0.5422696 -0.165743,-0.3461864 -0.05868,0.046247 -0.192876,-0.1486329 -0.176435,-0.5498882 0.146226,-0.1276477 0.168147,-0.3773298 0.267059,0.3869535 0.419301,0.9870991 0.489474,1.2355778 -0.05347,-0.3030131 -0.139678,-0.59667 -0.245138,-0.8807033 0.0814,0.034351 -0.130856,-0.6232691 0.105727,-0.187796 C 12.420032,4.025556 11.592793,3.1580852 10.831585,2.7512158 10.92448,2.8363592 11.04197,2.9432892 11,2.9601306 10.621199,2.7349089 10.687764,2.7171319 10.633497,2.6219642 10.325404,2.4964549 10.30482,2.632255 10.100984,2.6222314 9.5195524,2.3137378 9.4075425,2.3464853 8.8724912,2.1534763 l 0.024323,0.1138805 C 8.5117315,2.1390408 8.4481081,2.3157433 8.0320157,2.2676244 8.0067499,2.247975 8.1654118,2.195981 8.2961334,2.1771346 7.9237496,2.2263222 7.9411251,2.1036205 7.576761,2.1906348 7.6664485,2.1276802 7.7616157,2.0858433 7.8573194,2.0323781 7.5537712,2.0508238 7.1323328,2.2090803 7.2623857,2.064992 6.7671662,2.2860702 5.8875318,2.5963011 5.3939157,3.0591751 L 5.3784064,2.9554528 C 5.1522355,3.2269215 4.3920962,3.7662504 4.3315471,4.118184 L 4.2709981,4.132218 C 4.1535377,4.3315093 4.0772162,4.5572657 3.9839195,4.7621706 3.8300738,5.0245506 3.7582973,4.8632195 3.7802177,4.9043877 3.4774718,5.5181669 3.3268342,6.0338375 3.1970472,6.4570134 3.2895421,6.5953541 3.1993281,7.2899995 3.234206,7.8459025 3.0823655,10.591868 5.1613546,13.257771 7.4338873,13.873154 7.7669751,13.992515 8.262196,13.988238 8.6835,14 8.1865423,13.857783 8.1223839,13.924748 7.6379902,13.755932 7.2887299,13.591259 7.2122744,13.403463 6.9647319,13.188668 l 0.097974,0.173093 C 6.5775104,13.190005 6.7805439,13.149237 6.3857053,13.024262 l 0.1046569,-0.136469 c -0.157321,-0.01203 -0.4166263,-0.26492 -0.4874676,-0.405399 l -0.1721578,0.0068 C 5.6240945,12.234451 5.5138232,12.050397 5.5219765,11.90778 l -0.055604,0.09918 C 5.4034177,11.898823 4.7056984,11.050199 5.0676566,11.247752 5.0004245,11.186535 4.911004,11.147907 4.8140987,10.971605 l 0.073648,-0.08407 C 4.7138517,10.663383 4.567224,10.376142 4.5784516,10.280439 c 0.092895,0.125376 0.1573206,0.1489 0.2212118,0.17042 C 4.3597795,9.3596335 4.3350515,10.390841 4.0020977,9.3401185 l 0.070307,-0.00563 C 4.0185383,9.2528358 3.9855236,9.164752 3.9422168,9.0780051 L 3.9729595,8.7725857 C 3.656446,8.4068848 3.8844748,7.2160835 3.9303209,6.5631412 3.9617318,6.2976871 4.1945719,6.0149907 4.3714078,5.5716314 L 4.2636756,5.5531853 C 4.4697836,5.1939 5.4401749,4.1097619 5.8898158,4.1653655 6.1075524,3.8918917 5.8465097,4.1642898 5.803871,4.0955937 6.2822494,3.6006406 6.4326205,3.7459321 6.7554154,3.6567791 7.1033395,3.4502702 6.4566796,3.7375113 6.6216195,3.5780518 7.2235022,3.4244733 7.0480033,3.2286575 7.8330047,3.1507321 7.9158747,3.1977811 7.6409307,3.2234441 7.5719606,3.2845285 8.0731963,3.0391239 9.1584026,3.0951284 9.8636081,3.4205971 10.681222,3.8030062 11.60042,4.9328567 11.636777,5.9958759 l 0.0413,0.011095 c -0.02085,0.4226413 0.0647,0.9114458 -0.08381,1.360285 l 0.100381,-0.2126572"
       id="path2536"
       style="fill:#d70751;display:inline" />
  </g>
  <g
     inkscape:groupmode="layer"
     id="layer2"
     inkscape:label="Symbol"
     sodipodi:insensitive="true" />
</svg>
