<?xml version="1.0" encoding="UTF-8" standalone="no"?>
<!-- Created with Inkscape (http://www.inkscape.org/) -->

<svg
   xmlns:dc="http://purl.org/dc/elements/1.1/"
   xmlns:cc="http://creativecommons.org/ns#"
   xmlns:rdf="http://www.w3.org/1999/02/22-rdf-syntax-ns#"
   xmlns:svg="http://www.w3.org/2000/svg"
   xmlns="http://www.w3.org/2000/svg"
   xmlns:xlink="http://www.w3.org/1999/xlink"
   xmlns:sodipodi="http://sodipodi.sourceforge.net/DTD/sodipodi-0.dtd"
   xmlns:inkscape="http://www.inkscape.org/namespaces/inkscape"
   width="16"
   height="16"
   id="svg2"
   sodipodi:version="0.32"
   inkscape:version="0.47 r22583"
   version="1.0"
   sodipodi:docname="evolution-calendar.svg"
   inkscape:output_extension="org.inkscape.output.svg.inkscape"
   style="display:inline">
  <defs
     id="defs4">
    <inkscape:perspective
       sodipodi:type="inkscape:persp3d"
       inkscape:vp_x="0 : 8 : 1"
       inkscape:vp_y="0 : 1000 : 0"
       inkscape:vp_z="16 : 8 : 1"
       inkscape:persp3d-origin="8 : 5.3333333 : 1"
       id="perspective26" />
    <linearGradient
       inkscape:collect="always"
       id="linearGradient3327">
      <stop
         style="stop-color:#000000;stop-opacity:1;"
         offset="0"
         id="stop3330" />
      <stop
         style="stop-color:#000000;stop-opacity:0;"
         offset="1"
         id="stop3333" />
    </linearGradient>
    <linearGradient
       id="ButtonColor"
       x1="10.31979"
       y1="21"
       x2="10.31979"
       y2="0.99929649"
       gradientUnits="userSpaceOnUse">
      <stop
         style="stop-color:#29669f;stop-opacity:1;"
         offset="0"
         id="stop3189" />
      <stop
         style="stop-color:#88b6e0;stop-opacity:1;"
         offset="1"
         id="stop3191" />
    </linearGradient>
    <linearGradient
       inkscape:collect="always"
       xlink:href="#linearGradient3327"
       id="linearGradient3192"
       x1="9.0574636"
       y1="10.202822"
       x2="9.0574636"
       y2="-12.198761"
       gradientUnits="userSpaceOnUse"
       gradientTransform="translate(0,5.8006549)" />
    <linearGradient
       inkscape:collect="always"
       xlink:href="#ButtonColor-1"
       id="linearGradient3204"
       x1="1"
       y1="9"
       x2="15"
       y2="9"
       gradientUnits="userSpaceOnUse"
       gradientTransform="translate(-17,-2)" />
    <linearGradient
       inkscape:collect="always"
       xlink:href="#ButtonColor"
       id="linearGradient3173"
       gradientUnits="userSpaceOnUse"
       gradientTransform="translate(-16,-1)"
       x1="1"
       y1="9"
       x2="15"
       y2="9" />
    <linearGradient
       inkscape:collect="always"
       xlink:href="#ButtonColor"
       id="linearGradient3177"
       gradientUnits="userSpaceOnUse"
       gradientTransform="translate(-16,-1)"
       x1="1"
       y1="9"
       x2="15"
       y2="9" />
    <linearGradient
       inkscape:collect="always"
       xlink:href="#ButtonColor"
       id="linearGradient3179"
       gradientUnits="userSpaceOnUse"
       gradientTransform="matrix(0,-1,1,0,-1,16)"
       x1="1"
       y1="9"
       x2="15"
       y2="9" />
    <linearGradient
       inkscape:collect="always"
       xlink:href="#linearGradient3327"
       id="linearGradient3612"
       x1="8"
       y1="15"
       x2="8"
       y2="-1"
       gradientUnits="userSpaceOnUse" />
    <inkscape:perspective
       id="perspective2880"
       inkscape:persp3d-origin="0.5 : 0.33333333 : 1"
       inkscape:vp_z="1 : 0.5 : 1"
       inkscape:vp_y="0 : 1000 : 0"
       inkscape:vp_x="0 : 0.5 : 1"
       sodipodi:type="inkscape:persp3d" />
    <linearGradient
       inkscape:collect="always"
       xlink:href="#ButtonColor-1"
       id="linearGradient3181"
       x1="-3.0607977"
       y1="27.258198"
       x2="-3.0607977"
       y2="7.2536583"
       gradientUnits="userSpaceOnUse"
       gradientTransform="translate(11.119372,-6.2581977)" />
    <linearGradient
       id="ButtonColor-1"
       x1="10.31979"
       y1="21"
       x2="10.31979"
       y2="0.99929649"
       gradientUnits="userSpaceOnUse">
      <stop
         style="stop-color:#dcdcdc;stop-opacity:1;"
         offset="0"
         id="stop3189-4" />
      <stop
         style="stop-color:#f0f0f0;stop-opacity:1;"
         offset="1"
         id="stop3191-9" />
    </linearGradient>
    <linearGradient
       inkscape:collect="always"
       xlink:href="#ButtonColor-1"
       id="linearGradient3617"
       gradientUnits="userSpaceOnUse"
       gradientTransform="translate(-17,-22)"
       x1="1"
       y1="9"
       x2="15"
       y2="9" />
    <linearGradient
       inkscape:collect="always"
       xlink:href="#linearGradient3327"
       id="linearGradient3634"
       x1="7.5530033"
       y1="15.95053"
       x2="7.5530033"
       y2="-7.3556914"
       gradientUnits="userSpaceOnUse" />
    <linearGradient
       inkscape:collect="always"
       xlink:href="#ButtonColor-1"
       id="linearGradient3638"
       gradientUnits="userSpaceOnUse"
       gradientTransform="matrix(0,-1,1,0,-42,17)"
       x1="1"
       y1="9"
       x2="15"
       y2="9" />
    <linearGradient
       inkscape:collect="always"
       xlink:href="#ButtonColor-1"
       id="linearGradient3643"
       gradientUnits="userSpaceOnUse"
       gradientTransform="matrix(0,-1,1,0,-22,17)"
       x1="1"
       y1="9"
       x2="15"
       y2="9" />
    <linearGradient
       inkscape:collect="always"
       xlink:href="#ButtonColor-1"
       id="linearGradient3649"
       gradientUnits="userSpaceOnUse"
       gradientTransform="matrix(0,-1,1,0,-22,18)"
       x1="1"
       y1="9"
       x2="15"
       y2="9" />
    <linearGradient
       inkscape:collect="always"
       xlink:href="#ButtonColor-1"
       id="linearGradient3651"
       gradientUnits="userSpaceOnUse"
       gradientTransform="matrix(0,-1,1,0,-22,17)"
       x1="1"
       y1="9"
       x2="15"
       y2="9" />
    <linearGradient
       inkscape:collect="always"
       xlink:href="#ButtonColor-1"
       id="linearGradient3656"
       gradientUnits="userSpaceOnUse"
       gradientTransform="matrix(0,-1,1,0,-2,17)"
       x1="1"
       y1="9"
       x2="15"
       y2="9" />
    <linearGradient
       inkscape:collect="always"
       xlink:href="#ButtonColor-1"
       id="linearGradient3667"
       gradientUnits="userSpaceOnUse"
       gradientTransform="matrix(0,-1,1,0,-2,17)"
       x1="1"
       y1="9"
       x2="15"
       y2="9" />
  </defs>
  <sodipodi:namedview
     id="base"
     pagecolor="#ffffff"
     bordercolor="#e7e7e7"
     borderopacity="1"
     inkscape:pageopacity="0.0"
     inkscape:pageshadow="2"
     inkscape:zoom="31.9224"
     inkscape:cx="3.2531747"
     inkscape:cy="8.0980208"
     inkscape:document-units="px"
     inkscape:current-layer="layer1"
     showgrid="true"
     inkscape:showpageshadow="false"
     showguides="false"
     inkscape:guide-bbox="true"
     inkscape:window-width="1920"
     inkscape:window-height="1027"
     inkscape:window-x="0"
     inkscape:window-y="25"
     inkscape:window-maximized="1"
     inkscape:snap-global="true">
    <sodipodi:guide
       orientation="1,0"
       position="0,112"
       id="guide2383" />
    <sodipodi:guide
       orientation="0,1"
       position="26.278146,128"
       id="guide2385" />
    <sodipodi:guide
       orientation="1,0"
       position="128,54.082119"
       id="guide2387" />
    <sodipodi:guide
       orientation="0,1"
       position="78.156291,0"
       id="guide2389" />
    <sodipodi:guide
       orientation="0,1"
       position="60.863576,64.084768"
       id="guide2391" />
    <inkscape:grid
       type="xygrid"
       id="grid3672"
       visible="true"
       enabled="true" />
  </sodipodi:namedview>
  <metadata
     id="metadata7">
    <rdf:RDF>
      <cc:Work
         rdf:about="">
        <dc:format>image/svg+xml</dc:format>
        <dc:type
           rdf:resource="http://purl.org/dc/dcmitype/StillImage" />
      </cc:Work>
    </rdf:RDF>
  </metadata>
  <g
     inkscape:label="Button"
     inkscape:groupmode="layer"
     id="layer1">
    <rect
       ry="2"
       rx="2"
       y="0"
       x="-16"
       height="16"
       width="16"
       id="rect3196"
       style="fill:url(#linearGradient3204);fill-opacity:1;fill-rule:nonzero;stroke:none"
       transform="matrix(0,-1,1,0,0,0)" />
    <path
       style="fill:#c83737;fill-opacity:1;fill-rule:nonzero;stroke:none"
       d="m 3,-9 c -1.108,0 -2,0.892 -2,2 l 0,3 14,0 0,-3 c 0,-1.108 -0.892,-2 -2,-2 L 3,-9 z"
       id="rect3626"
       sodipodi:nodetypes="ccccccc" />
    <path
       style="opacity:0.7;fill:#000000;fill-opacity:1;stroke:none"
       d="M 30,7 29,8 29,9 30,8.34375 30,12 l -1,0 0,1 3,0 0,-1 -1,0 0,-4 0,-1 -1,0 z"
       id="rect3647"
       sodipodi:nodetypes="ccccccccccccc" />
    <path
       style="opacity:0.7;fill:#000000;fill-opacity:1;stroke:none"
       d="m 26,6.9717314 c -1.104569,0 -2,1.349474 -2,3.0141343 C 24,11.650526 24.895431,13 26,13 27.104569,13 28,11.650526 28,9.9858657 28,8.3212054 27.104569,6.9717314 26,6.9717314 z m 0,1.1033885 c 0.533048,0 0.96875,0.8553124 0.96875,1.9107458 0,1.0554333 -0.435702,1.9107463 -0.96875,1.9107463 -0.533048,0 -0.96875,-0.855313 -0.96875,-1.9107463 0,-1.0554334 0.435702,-1.9107458 0.96875,-1.9107458 z"
       id="path3655" />
    <rect
       transform="matrix(0,-1,1,0,0,0)"
       style="fill:url(#linearGradient3617);fill-opacity:1;fill-rule:nonzero;stroke:none"
       id="rect3615"
       width="16"
       height="16"
       x="-16"
       y="-20"
       rx="2"
       ry="2" />
    <path
       style="fill:#ff0000;fill-opacity:1;fill-rule:nonzero;stroke:none"
       d="M -18 0 C -19.108 0 -20 0.892 -20 2 L -20 14 C -20 15.108 -19.108 16 -18 16 L -6 16 C -4.892 16 -4 15.108 -4 14 L -4 2 C -4 0.892 -4.892 3.0947467e-18 -6 0 L -18 0 z M -17.96875 1 L -6.03125 1 C -5.4473874 1 -5 1.4473874 -5 2.03125 L -5 13.96875 C -5 14.552612 -5.4473874 15 -6.03125 15 L -17.96875 15 C -18.552612 15 -19 14.552612 -19 13.96875 L -19 2.03125 C -19 1.4473874 -18.552612 1 -17.96875 1 z "
       id="rect3619" />
    <path
       style="fill:#c83737;fill-opacity:1;fill-rule:nonzero;stroke:none"
       d="M 2,0 C 0.892,0 0,0.892 0,2 L 0,5 16,5 16,2 C 16,0.892 15.108,0 14,0 L 2,0 z"
       id="rect3663"
       sodipodi:nodetypes="ccccccc" />
    <path
       id="path3626"
       d="M 2,0 C 0.892,0 0,0.892 0,2 l 0,12 c 0,1.108 0.892,2 2,2 l 12,0 c 1.108,0 2,-0.892 2,-2 L 16,2 C 16,0.892 15.108,0 14,0 L 2,0 z m 0.03125,1 11.9375,0 C 14.552613,1 15,1.4473874 15,2.03125 l 0,11.9375 C 15,14.552612 14.552613,15 13.96875,15 L 2.03125,15 C 1.447388,15 1,14.552612 1,13.96875 L 1,2.03125 C 1,1.4473874 1.447388,1 2.03125,1 z"
       style="fill:url(#linearGradient3634);fill-opacity:1;fill-rule:nonzero;stroke:none;opacity:0.5" />
    <path
       style="fill:url(#linearGradient3643);fill-opacity:1;fill-rule:nonzero;stroke:none"
       d="M -17.96875,1 C -18.552612,1 -19,1.4473874 -19,2.03125 l 0,11.9375 C -19,14.552612 -18.552612,15 -17.96875,15 l 11.9375,0 C -5.447387,15 -5,14.552612 -5,13.96875 L -5,2.03125 C -5,1.4473874 -5.447387,1 -6.03125,1 l -11.9375,0 z"
       id="rect3636" />
    <path
       style="fill:#ffffff;fill-opacity:1;fill-rule:nonzero;stroke:none;opacity:0.2"
       d="M 2.03125,1 C 1.447388,1 1,1.4473874 1,2.03125 l 0,1 C 1,2.4473874 1.447388,2 2.03125,2 l 11.9375,0 C 14.552613,2 15,2.4473874 15,3.03125 l 0,-1 C 15,1.4473874 14.552613,1 13.96875,1 L 2.03125,1 z"
       id="path3645" />
    <path
       style="fill:#333333;fill-opacity:1;stroke:none"
       d="M 12,7 9,8.4890091 9,10 l 1,0 0,3 2,0 0,-6 z"
       id="rect3670"
       sodipodi:nodetypes="ccccccc" />
    <path
       style="fill:#333333;fill-opacity:1;stroke:none"
       d="m 5.5,7 c -1.5191187,0 -2.7506077,1.3431458 -2.7506077,3 0,1.656854 1.231489,3 2.7506077,3 1.5191187,0 2.7506077,-1.343146 2.7506077,-3 0,-1.6568542 -1.231489,-3 -2.7506077,-3 z m 0,1.625 c 0.6915658,0 1.2377735,0.6207313 1.2377735,1.375 0,0.754269 -0.5462077,1.375 -1.2377735,1.375 C 4.8084342,11.375 4.2622265,10.754269 4.2622265,10 4.2622265,9.2457313 4.8084342,8.625 5.5,8.625 z"
       id="path3673" />
    <rect
       style="opacity:0.50000000000000000;fill:#952929;fill-opacity:1;stroke:none"
       id="rect2857"
       width="14"
       height="1"
       x="1"
       y="4" />
    <rect
       y="5"
       x="1"
       height="1"
       width="14"
       id="rect2859"
       style="opacity:0.50000000000000000;fill:#b3b3b3;fill-opacity:1;stroke:none" />
  </g>
</svg>
