<?xml version="1.0" encoding="UTF-8" standalone="no"?>
<!-- Created with Inkscape (http://www.inkscape.org/) -->

<svg
   xmlns:dc="http://purl.org/dc/elements/1.1/"
   xmlns:cc="http://creativecommons.org/ns#"
   xmlns:rdf="http://www.w3.org/1999/02/22-rdf-syntax-ns#"
   xmlns:svg="http://www.w3.org/2000/svg"
   xmlns="http://www.w3.org/2000/svg"
   xmlns:xlink="http://www.w3.org/1999/xlink"
   xmlns:sodipodi="http://sodipodi.sourceforge.net/DTD/sodipodi-0.dtd"
   xmlns:inkscape="http://www.inkscape.org/namespaces/inkscape"
   width="16"
   height="16"
   id="svg2"
   sodipodi:version="0.32"
   inkscape:version="0.48.1 r9760"
   version="1.0"
   sodipodi:docname="folder-documents.svg"
   inkscape:output_extension="org.inkscape.output.svg.inkscape"
   style="display:inline">
  <defs
     id="defs4">
    <linearGradient
       id="linearGradient3191">
      <stop
         style="stop-color:#8b6429;stop-opacity:1;"
         offset="0"
         id="stop3193" />
      <stop
         style="stop-color:#cb9a4d;stop-opacity:1;"
         offset="1"
         id="stop3195" />
    </linearGradient>
    <linearGradient
       id="linearGradient3187">
      <stop
         style="stop-color:#c29657;stop-opacity:1;"
         offset="0"
         id="stop3189" />
      <stop
         style="stop-color:#e2c89a;stop-opacity:1;"
         offset="1"
         id="stop3191" />
    </linearGradient>
    <linearGradient
       inkscape:collect="always"
       xlink:href="#linearGradient3187"
       id="linearGradient3668"
       x1="10.871767"
       y1="26.306055"
       x2="10.871767"
       y2="8.1216478"
       gradientUnits="userSpaceOnUse"
       gradientTransform="matrix(0.6999999,0,0,0.6999999,-1.886778,-3.4141973)" />
    <linearGradient
       inkscape:collect="always"
       xlink:href="#linearGradient3191"
       id="linearGradient3197"
       x1="4.0625"
       y1="17.000139"
       x2="4.0625"
       y2="2.9996619"
       gradientUnits="userSpaceOnUse"
       gradientTransform="translate(0,-1.5)" />
  </defs>
  <sodipodi:namedview
     id="base"
     pagecolor="#ffffff"
     bordercolor="#dc0000"
     borderopacity="1"
     inkscape:pageopacity="0"
     inkscape:pageshadow="2"
     inkscape:zoom="22.695034"
     inkscape:cx="5.3161051"
     inkscape:cy="9.2933256"
     inkscape:document-units="px"
     inkscape:current-layer="layer2"
     showgrid="true"
     inkscape:showpageshadow="false"
     showguides="true"
     inkscape:guide-bbox="true"
     inkscape:window-width="1920"
     inkscape:window-height="1030"
     inkscape:window-x="0"
     inkscape:window-y="25"
     inkscape:window-maximized="1"
     borderlayer="true">
    <sodipodi:guide
       orientation="0,1"
       position="26.278146,128"
       id="guide2385" />
    <sodipodi:guide
       orientation="1,0"
       position="128,54.082119"
       id="guide2387" />
    <sodipodi:guide
       orientation="0,1"
       position="78.156291,0"
       id="guide2389" />
    <inkscape:grid
       type="xygrid"
       id="grid3672"
       visible="true"
       enabled="true"
       empspacing="8"
       snapvisiblegridlinesonly="true" />
  </sodipodi:namedview>
  <metadata
     id="metadata7">
    <rdf:RDF>
      <cc:Work
         rdf:about="">
        <dc:format>image/svg+xml</dc:format>
        <dc:type
           rdf:resource="http://purl.org/dc/dcmitype/StillImage" />
        <dc:title></dc:title>
      </cc:Work>
    </rdf:RDF>
  </metadata>
  <g
     inkscape:label="Folder"
     inkscape:groupmode="layer"
     id="layer1"
     style="display:inline"
     sodipodi:insensitive="true">
    <rect
       style="fill:url(#linearGradient3197);fill-opacity:1;fill-rule:nonzero;stroke:none"
       id="rect2419"
       width="16"
       height="14.5"
       x="0"
       y="1.5"
       rx="2"
       ry="2" />
    <rect
       style="opacity:0;fill:#000000;fill-opacity:1;stroke:none;display:inline"
       id="rect3214"
       width="15"
       height="12.000001"
       x="0.5"
       y="4"
       rx="1.6666666"
       ry="1.627907" />
    <path
       style="fill:#9b6e2d;fill-opacity:1;fill-rule:nonzero;stroke:none"
       d="M 2.049999,0 C 1.4683,0 1,0.4683 1,1.05 L 1,2.1185435 1,3.577728 c 0,0.5816999 0.4683,1.0499999 1.049999,1.0499999 l 4.1756515,0 7.7000025,0 c 0.581699,0 1.049999,-0.4683 1.049999,-1.0499999 l 0,-1.4591845 c 0,-0.5816999 -0.4683,-1.0499999 -1.049999,-1.0499999 l -6.4643875,0 L 7.2756495,1.05 C 6.6968312,0.9921743 6.8073495,0 6.2256505,0 L 2.049999,0 z"
       id="rect2859"
       sodipodi:nodetypes="cccccccccccscc"
       inkscape:connector-curvature="0" />
    <path
       style="fill:#c39759;fill-opacity:1;fill-rule:nonzero;stroke:none"
       d="m 2.038152,1.027728 c -0.01345,0 0,-0.01913 0,0.03125 l 0,1.0625 0,3.46875 4.1875,0 7.6875,0 c 0.05038,0 0.03125,0.01345 0.03125,0 l 0,-3.46875 c 0,-0.01345 -0.0178,-0.03125 -0.03125,-0.03125 l -6.4375,0 -0.1875,0 c -0.03123,0.0014 -0.06252,0.0014 -0.09375,0 C 6.752915,2.046118 6.356927,1.740365 6.163152,1.496478 6.002471,1.294244 5.937954,1.151834 5.881902,1.027728 l -3.84375,0 z"
       id="path3218"
       sodipodi:nodetypes="cccccccccccsscc"
       inkscape:connector-curvature="0" />
    <rect
       style="fill:url(#linearGradient3668);fill-opacity:1;fill-rule:nonzero;stroke:none"
       id="rect3660"
       width="14"
       height="13.000002"
       x="1"
       y="2"
       rx="1"
       ry="1" />
    <path
       style="opacity:0.2;fill:#ffffff;fill-opacity:1;fill-rule:nonzero;stroke:none"
       d="M 2,2 C 1.446,2 1,2.446 1,3 L 1,4 C 1,3.446 1.446,3 2,3 l 12,0 c 0.554,0 1,0.446 1,1 L 15,3 C 15,2.446 14.554,2 14,2 L 2,2 z"
       id="rect3880"
       inkscape:connector-curvature="0" />
  </g>
  <g
     inkscape:groupmode="layer"
     id="layer2"
     inkscape:label="Symbol">
    <rect
       style="color:#000000;fill:#906d3b;fill-opacity:1;fill-rule:nonzero;stroke:none;stroke-width:2;marker:none;visibility:visible;display:inline;overflow:visible;enable-background:accumulate"
       id="rect3884"
       width="8"
       height="8"
       x="24"
       y="-8" />
    <rect
       style="color:#000000;fill:#bd8e48;fill-opacity:1;fill-rule:nonzero;stroke:none;stroke-width:2;marker:none;visibility:visible;display:inline;overflow:visible;enable-background:accumulate"
       id="rect3884-7"
       width="8"
       height="8"
       x="24"
       y="2" />
    <path
       d="M 4.90625,4.03125 A 0.97255626,0.97255626 0 0 0 4.03125,5 l 0,8 A 0.97255626,0.97255626 0 0 0 5,13.96875 l 6,0 A 0.97255626,0.97255626 0 0 0 11.96875,13 l 0,-5 0,-1 A 0.97255626,0.97255626 0 0 0 11.6875,6.3125 l -1,-1 -1,-1 A 0.97255626,0.97255626 0 0 0 9,4.03125 l -1,0 -3,0 a 0.97255626,0.97255626 0 0 0 -0.09375,0 z m 2.0625,2.9375 0.0625,0 0,1.03125 A 0.97255626,0.97255626 0 0 0 8,8.96875 l 1.03125,0 0,2.0625 -2.0625,0 0,-4.0625 z"
       id="path3706"
       style="opacity:0.15;fill:#ffffff;fill-opacity:1;stroke:none;display:inline"
       inkscape:original="M 5 5 L 5 13 L 11 13 L 11 8 L 11 7 L 10 6 L 9 5 L 8 5 L 5 5 z M 6 6 L 8 6 L 8 8 L 10 8 L 10 12 L 6 12 L 6 6 z "
       inkscape:radius="0.97245902"
       sodipodi:type="inkscape:offset" />
    <path
       inkscape:connector-curvature="0"
       id="path3708"
       d="M 5,5.0000009 5,13 l 6,0 0,-4.9999991 0,-1 -1,-1 -1,-1 -1,0 -3,0 z m 1,1 2,0 0,2 2,0 L 10,12 6,12 6,6.0000009 z"
       style="fill:#bd8e48;fill-opacity:1;stroke:none;display:inline" />
    <path
       inkscape:connector-curvature="0"
       id="path3710"
       d="M 5,5.0000009 5,13 l 6,0 0,-4.9999991 0,-1 -1,-1 -1,-1 -1,0 -3,0 z m 0.5625,0.5625 0.09375,0 a 0.55920905,0.55920905 0 0 0 -0.09375,0.0625 l 0,-0.0625 z m 2.8125,0 0.375,0 0.84375,0.84375 0.84375,0.84375 0,0.40625 A 0.55920905,0.55920905 0 0 0 10,7.4375009 l -1.4375,0 0,-1.4375 a 0.55920905,0.55920905 0 0 0 -0.1875,-0.4375 z m -2.375,0.4375 2,0 0,2 2,0 L 10,12 6,12 6,6.0000009 z M 5.5625,12.34375 A 0.55920905,0.55920905 0 0 0 5.625,12.4375 l -0.0625,0 0,-0.09375 z m 4.875,0.03125 0,0.0625 -0.09375,0 A 0.55920905,0.55920905 0 0 0 10.4375,12.375 z"
       style="opacity:0.1;fill:#000000;fill-opacity:1;stroke:none;display:inline" />
    <path
       inkscape:connector-curvature="0"
       id="path3712"
       d="m 5,5.0000009 0,1 1,0 2,0 1,0 1,1 1,1 0,-1 -1,-1 -1,-1 -1,0 -3,0 z M 6,12 l 0,1 4,0 0,-1 -4,0 z"
       style="opacity:0.2;fill:#000000;fill-opacity:1;stroke:none;display:inline" />
    <path
       inkscape:connector-curvature="0"
       style="opacity:0.15;fill:#ffffff;fill-opacity:1;stroke:none;display:inline"
       d="m 6,6.0000003 0,1 2,0 0,-1 -2,0 z m 2,2 0,1 2,0 0,-1 -2,0 z M 5,13 l 0,1 6,0 0,-1 -1,0 -4,0 -1,0 z"
       id="path3812" />
  </g>
</svg>
