<?xml version="1.0" encoding="UTF-8" standalone="no"?>
<!-- Created with Inkscape (http://www.inkscape.org/) -->

<svg
   xmlns:dc="http://purl.org/dc/elements/1.1/"
   xmlns:cc="http://creativecommons.org/ns#"
   xmlns:rdf="http://www.w3.org/1999/02/22-rdf-syntax-ns#"
   xmlns:svg="http://www.w3.org/2000/svg"
   xmlns="http://www.w3.org/2000/svg"
   xmlns:xlink="http://www.w3.org/1999/xlink"
   xmlns:sodipodi="http://sodipodi.sourceforge.net/DTD/sodipodi-0.dtd"
   xmlns:inkscape="http://www.inkscape.org/namespaces/inkscape"
   width="16"
   height="16"
   id="svg2"
   sodipodi:version="0.32"
   inkscape:version="0.47 r22583"
   version="1.0"
   sodipodi:docname="multipart-encrypted.svg"
   inkscape:output_extension="org.inkscape.output.svg.inkscape"
   style="display:inline">
  <defs
     id="defs4">
    <inkscape:perspective
       sodipodi:type="inkscape:persp3d"
       inkscape:vp_x="0 : 8 : 1"
       inkscape:vp_y="0 : 1000 : 0"
       inkscape:vp_z="16 : 8 : 1"
       inkscape:persp3d-origin="8 : 5.3333333 : 1"
       id="perspective26" />
    <linearGradient
       inkscape:collect="always"
       id="linearGradient3327">
      <stop
         style="stop-color:#000000;stop-opacity:1;"
         offset="0"
         id="stop3330" />
      <stop
         style="stop-color:#000000;stop-opacity:0;"
         offset="1"
         id="stop3333" />
    </linearGradient>
    <linearGradient
       id="ButtonColor"
       x1="10.31979"
       y1="21"
       x2="10.31979"
       y2="0.99929649"
       gradientUnits="userSpaceOnUse">
      <stop
         style="stop-color:#e6e6e6;stop-opacity:1;"
         offset="0"
         id="stop3189" />
      <stop
         style="stop-color:#f5f5f5;stop-opacity:1;"
         offset="1"
         id="stop3191" />
    </linearGradient>
    <linearGradient
       inkscape:collect="always"
       xlink:href="#linearGradient3327"
       id="linearGradient3192"
       x1="9.0574636"
       y1="10.202822"
       x2="9.0574636"
       y2="-12.198761"
       gradientUnits="userSpaceOnUse"
       gradientTransform="translate(0,5.8006549)" />
    <linearGradient
       inkscape:collect="always"
       xlink:href="#ButtonColor"
       id="linearGradient3204"
       x1="1"
       y1="9"
       x2="15"
       y2="9"
       gradientUnits="userSpaceOnUse"
       gradientTransform="translate(-16,-1)" />
    <linearGradient
       inkscape:collect="always"
       xlink:href="#ButtonColor"
       id="linearGradient3173"
       gradientUnits="userSpaceOnUse"
       gradientTransform="translate(-16,-1)"
       x1="1"
       y1="9"
       x2="15"
       y2="9" />
    <linearGradient
       inkscape:collect="always"
       xlink:href="#ButtonColor"
       id="linearGradient3177"
       gradientUnits="userSpaceOnUse"
       gradientTransform="translate(-16,-1)"
       x1="1"
       y1="9"
       x2="15"
       y2="9" />
    <linearGradient
       inkscape:collect="always"
       xlink:href="#ButtonColor"
       id="linearGradient3179"
       gradientUnits="userSpaceOnUse"
       gradientTransform="matrix(0,-1,1,0,-1,16)"
       x1="1"
       y1="9"
       x2="15"
       y2="9" />
    <linearGradient
       inkscape:collect="always"
       xlink:href="#linearGradient3327"
       id="linearGradient3612"
       x1="8"
       y1="15"
       x2="8"
       y2="-1"
       gradientUnits="userSpaceOnUse" />
    <inkscape:perspective
       id="perspective3752"
       inkscape:persp3d-origin="0.5 : 0.33333333 : 1"
       inkscape:vp_z="1 : 0.5 : 1"
       inkscape:vp_y="0 : 1000 : 0"
       inkscape:vp_x="0 : 0.5 : 1"
       sodipodi:type="inkscape:persp3d" />
    <linearGradient
       inkscape:collect="always"
       xlink:href="#ButtonColor-5"
       id="linearGradient3204-0"
       x1="1"
       y1="9"
       x2="16.955648"
       y2="9"
       gradientUnits="userSpaceOnUse"
       gradientTransform="translate(-17,-2)" />
    <linearGradient
       id="ButtonColor-5"
       x1="10.31979"
       y1="21"
       x2="10.31979"
       y2="0.99929649"
       gradientUnits="userSpaceOnUse">
      <stop
         style="stop-color:#e6e6e6;stop-opacity:1;"
         offset="0"
         id="stop3189-0" />
      <stop
         style="stop-color:#f5f5f5;stop-opacity:1;"
         offset="1"
         id="stop3191-2" />
    </linearGradient>
    <linearGradient
       y2="-19.30397"
       x2="9.0574636"
       y1="10.202822"
       x1="9.0574636"
       gradientTransform="translate(-0.499722,5.300655)"
       gradientUnits="userSpaceOnUse"
       id="linearGradient2897"
       xlink:href="#linearGradient3327-7"
       inkscape:collect="always" />
    <linearGradient
       inkscape:collect="always"
       id="linearGradient3327-7">
      <stop
         style="stop-color:#000000;stop-opacity:1;"
         offset="0"
         id="stop3330-6" />
      <stop
         style="stop-color:#000000;stop-opacity:0;"
         offset="1"
         id="stop3333-8" />
    </linearGradient>
    <linearGradient
       y2="9"
       x2="16.955648"
       y1="9"
       x1="1"
       gradientTransform="translate(-17,-2)"
       gradientUnits="userSpaceOnUse"
       id="linearGradient3767"
       xlink:href="#ButtonColor-5"
       inkscape:collect="always" />
    <inkscape:perspective
       id="perspective3047"
       inkscape:persp3d-origin="0.5 : 0.33333333 : 1"
       inkscape:vp_z="1 : 0.5 : 1"
       inkscape:vp_y="0 : 1000 : 0"
       inkscape:vp_x="0 : 0.5 : 1"
       sodipodi:type="inkscape:persp3d" />
    <linearGradient
       inkscape:collect="always"
       xlink:href="#linearGradient3789"
       id="linearGradient3035"
       gradientUnits="userSpaceOnUse"
       gradientTransform="matrix(0.36876681,0,0,0.4375579,2.0062526,-1.7520847)"
       x1="42"
       y1="72"
       x2="42"
       y2="24" />
    <linearGradient
       id="linearGradient3789">
      <stop
         style="stop-color:#949494;stop-opacity:1;"
         offset="0"
         id="stop3791" />
      <stop
         style="stop-color:#b3b3b3;stop-opacity:1;"
         offset="1"
         id="stop3793" />
    </linearGradient>
    <linearGradient
       inkscape:collect="always"
       xlink:href="#linearGradient3789"
       id="linearGradient3037"
       gradientUnits="userSpaceOnUse"
       gradientTransform="matrix(0.40904878,0,0,0.4375579,-9.0917041,-1.7520847)"
       x1="42"
       y1="72"
       x2="42"
       y2="24" />
    <linearGradient
       id="linearGradient3056">
      <stop
         style="stop-color:#949494;stop-opacity:1;"
         offset="0"
         id="stop3058" />
      <stop
         style="stop-color:#b3b3b3;stop-opacity:1;"
         offset="1"
         id="stop3060" />
    </linearGradient>
    <linearGradient
       id="linearGradient3063">
      <stop
         style="stop-color:#949494;stop-opacity:1;"
         offset="0"
         id="stop3065" />
      <stop
         style="stop-color:#b3b3b3;stop-opacity:1;"
         offset="1"
         id="stop3067" />
    </linearGradient>
    <linearGradient
       y2="24"
       x2="42"
       y1="72"
       x1="42"
       gradientUnits="userSpaceOnUse"
       id="linearGradient3835"
       xlink:href="#linearGradient3789"
       inkscape:collect="always"
       gradientTransform="matrix(0.50606367,0,0,0.58347063,-9.1091462,61.995057)" />
    <linearGradient
       id="linearGradient3070">
      <stop
         style="stop-color:#949494;stop-opacity:1;"
         offset="0"
         id="stop3072" />
      <stop
         style="stop-color:#b3b3b3;stop-opacity:1;"
         offset="1"
         id="stop3074" />
    </linearGradient>
  </defs>
  <sodipodi:namedview
     id="base"
     pagecolor="#ffffff"
     bordercolor="#e7e7e7"
     borderopacity="1"
     inkscape:pageopacity="0.0"
     inkscape:pageshadow="2"
     inkscape:zoom="39.539262"
     inkscape:cx="9.7162662"
     inkscape:cy="8.1625935"
     inkscape:document-units="px"
     inkscape:current-layer="layer1"
     showgrid="true"
     inkscape:showpageshadow="false"
     showguides="false"
     inkscape:guide-bbox="true"
     inkscape:window-width="1920"
     inkscape:window-height="1023"
     inkscape:window-x="0"
     inkscape:window-y="24"
     inkscape:window-maximized="1"
     inkscape:snap-global="false">
    <sodipodi:guide
       orientation="1,0"
       position="0,112"
       id="guide2383" />
    <sodipodi:guide
       orientation="0,1"
       position="26.278146,128"
       id="guide2385" />
    <sodipodi:guide
       orientation="1,0"
       position="128,54.082119"
       id="guide2387" />
    <sodipodi:guide
       orientation="0,1"
       position="78.156291,0"
       id="guide2389" />
    <sodipodi:guide
       orientation="0,1"
       position="60.863576,64.084768"
       id="guide2391" />
    <inkscape:grid
       type="xygrid"
       id="grid3672"
       visible="true"
       enabled="true" />
  </sodipodi:namedview>
  <metadata
     id="metadata7">
    <rdf:RDF>
      <cc:Work
         rdf:about="">
        <dc:format>image/svg+xml</dc:format>
        <dc:type
           rdf:resource="http://purl.org/dc/dcmitype/StillImage" />
        <dc:title></dc:title>
      </cc:Work>
    </rdf:RDF>
  </metadata>
  <g
     inkscape:label="Button"
     inkscape:groupmode="layer"
     id="layer1">
    <rect
       ry="2"
       rx="2"
       y="0"
       x="-16"
       height="16"
       width="16"
       id="rect3196"
       style="fill:url(#linearGradient3767);fill-opacity:1;fill-rule:nonzero;stroke:none;display:inline"
       transform="matrix(0,-1,1,0,0,0)" />
    <path
       style="opacity:0.4;fill:url(#linearGradient2897);fill-opacity:1;fill-rule:nonzero;stroke:none;display:inline"
       d="M 2,0 C 0.892,0 0,0.892 0,2 l 0,12 c 0,1.108 0.892,2 2,2 l 12,0 c 1.108,0 2,-0.892 2,-2 L 16,2 C 16,0.892 15.108,0 14,0 L 2,0 z m 0.5,1 11,0 C 14.331,1 15,1.669 15,2.5 l 0,11 c 0,0.831 -0.669,1.5 -1.5,1.5 l -11,0 C 1.669,15 1,14.331 1,13.5 L 1,2.5 C 1,1.669 1.669,1 2.5,1 z"
       id="rect2410" />
    <path
       style="opacity:0.6;fill:#ffffff;fill-opacity:1;stroke:none;display:inline"
       d="M 2.5,1 C 1.669,1 1,1.669 1,2.5 l 0,1 C 1,2.669 1.669,2 2.5,2 l 11,0 C 14.331,2 15,2.669 15,3.5 l 0,-1 C 15,1.669 14.331,1 13.5,1 l -11,0 z"
       id="rect3770" />
    <path
       sodipodi:nodetypes="csccsccsccsccccccccsccccscccc"
       id="path2439"
       d="M 5.1188248,2 C 4.7512028,2.0000065 4.4589214,2.146484 4.2573246,2.4594166 4.0972306,2.7117898 4.0180191,3.007762 4.0180187,3.3257437 l 0,2.3758361 c 0,0.3179861 0.079212,0.5977987 0.2393059,0.8400735 0.2015968,0.307892 0.4938782,0.4594165 0.8615002,0.4594165 l 1.7389544,0 c 0.373547,0 0.6598975,-0.151526 0.8615009,-0.4594165 C 7.8793693,6.2993806 7.9745345,6.0195652 7.9745398,5.7015798 l 0,-2.3758361 C 7.9745345,3.007762 7.8793684,2.7117898 7.7192801,2.4594166 7.5176774,2.146484 7.2313271,2.0000065 6.8577792,2 L 5.1188248,2 z m 0.4390448,0.4200374 0.9017978,0 c 0.1007967,5e-6 0.1881994,0.017178 0.2712132,0.052506 L 4.9356751,6.1347427 C 4.8763802,5.9984642 4.8399517,5.8530009 4.8399526,5.7015798 l 0,-2.3758361 c -9e-7,-0.2119875 0.058738,-0.405937 0.1595372,-0.5775526 0.1304446,-0.2170325 0.3152746,-0.328148 0.5583798,-0.3281537 z m 1.5239923,0.4725421 c 0.05336,0.1413304 0.079766,0.2867938 0.07977,0.4331642 l 0,2.3758361 C 7.1616276,5.908524 7.1028908,6.0994414 7.0020937,6.2660041 6.8775742,6.4830424 6.7027686,6.5941594 6.4596674,6.5941586 l -0.9017978,0 c -0.088942,8e-7 -0.1781791,-0.022222 -0.2552593,-0.052506 L 7.0818619,2.8925805 z"
       style="font-size:16px;font-style:normal;font-variant:normal;font-weight:normal;font-stretch:normal;text-align:start;line-height:100%;writing-mode:lr-tb;text-anchor:start;fill:#999999;fill-opacity:1;stroke:none;display:inline;font-family:Unispace;-inkscape-font-specification:Unispace" />
    <path
       sodipodi:nodetypes="ccccccccccc"
       id="flowRoot2412"
       d="m 12.033781,6.989458 -3.0594363,0 0,-0.8424612 1.0076916,0 0,-3.2256776 -0.7754786,0 0,-0.9213192 1.7316393,0 0,4.1469968 1.095584,0 0,0.8424612"
       style="font-size:16px;font-style:normal;font-variant:normal;font-weight:normal;font-stretch:normal;text-align:start;line-height:100%;writing-mode:lr-tb;text-anchor:start;fill:#999999;fill-opacity:1;stroke:none;display:inline;font-family:Unispace;-inkscape-font-specification:Unispace" />
    <path
       style="font-size:16px;font-style:normal;font-variant:normal;font-weight:normal;font-stretch:normal;text-align:start;line-height:100%;writing-mode:lr-tb;text-anchor:start;fill:#999999;fill-opacity:1;stroke:none;display:inline;font-family:Unispace;-inkscape-font-specification:Unispace"
       d="m 9.126743,9 c -0.3676218,7e-6 -0.6599028,0.146484 -0.8614998,0.459417 -0.160094,0.252373 -0.239306,0.548345 -0.239306,0.866327 l 0,2.375836 c 0,0.317986 0.07921,0.597798 0.239306,0.840073 0.201597,0.307892 0.493878,0.459417 0.8614998,0.459417 l 1.738954,0 c 0.373547,0 0.659898,-0.151526 0.861501,-0.459417 0.160089,-0.242272 0.255255,-0.522088 0.25526,-0.840073 l 0,-2.375836 c -5e-6,-0.317982 -0.09517,-0.613954 -0.25526,-0.866327 C 11.525596,9.146484 11.239245,9.000007 10.865697,9 L 9.126743,9 z m 0.439045,0.420037 0.901798,0 c 0.100796,5e-6 0.188199,0.01718 0.271213,0.05251 l -1.7952058,3.6622 c -0.05929,-0.136283 -0.09572,-0.281746 -0.09572,-0.433167 l 0,-2.375836 C 8.8478722,10.113756 8.9066132,9.919807 9.00741,9.748191 9.137853,9.531159 9.322683,9.420043 9.565788,9.420037 z M 11.08978,9.89258 c 0.05336,0.14133 0.07977,0.286793 0.07977,0.433164 l 0,2.375836 c -4e-6,0.206944 -0.05874,0.397861 -0.159538,0.564424 -0.12452,0.217038 -0.299325,0.328155 -0.542426,0.328155 l -0.901798,0 c -0.08894,0 -0.178179,-0.02222 -0.255259,-0.05251 L 11.08978,9.892577 z"
       id="path2914"
       sodipodi:nodetypes="csccsccsccsccccccccsccccscccc" />
    <path
       style="font-size:16px;font-style:normal;font-variant:normal;font-weight:normal;font-stretch:normal;text-align:start;line-height:100%;writing-mode:lr-tb;text-anchor:start;fill:#999999;fill-opacity:1;stroke:none;display:inline;font-family:Unispace;-inkscape-font-specification:Unispace"
       d="m 7.0157629,13.989458 -3.0088537,0 0,-0.842461 1.0076916,0 0,-3.225678 -0.7754786,0 0,-0.921319 1.7316393,0 0,4.146997 1.0450014,0 0,0.842461"
       id="path2916"
       sodipodi:nodetypes="ccccccccccc" />
  </g>
  <g
     inkscape:groupmode="layer"
     id="layer2"
     inkscape:label="Symbol"
     sodipodi:insensitive="true" />
</svg>
