<?xml version="1.0" encoding="UTF-8" standalone="no"?>
<!-- Created with Inkscape (http://www.inkscape.org/) -->

<svg
   xmlns:dc="http://purl.org/dc/elements/1.1/"
   xmlns:cc="http://creativecommons.org/ns#"
   xmlns:rdf="http://www.w3.org/1999/02/22-rdf-syntax-ns#"
   xmlns:svg="http://www.w3.org/2000/svg"
   xmlns="http://www.w3.org/2000/svg"
   xmlns:xlink="http://www.w3.org/1999/xlink"
   xmlns:sodipodi="http://sodipodi.sourceforge.net/DTD/sodipodi-0.dtd"
   xmlns:inkscape="http://www.inkscape.org/namespaces/inkscape"
   width="16"
   height="16"
   id="svg2"
   sodipodi:version="0.32"
   inkscape:version="0.47 r22583"
   version="1.0"
   sodipodi:docname="text-x-c.svg"
   inkscape:output_extension="org.inkscape.output.svg.inkscape"
   style="display:inline">
  <defs
     id="defs4">
    <inkscape:perspective
       sodipodi:type="inkscape:persp3d"
       inkscape:vp_x="0 : 8 : 1"
       inkscape:vp_y="0 : 1000 : 0"
       inkscape:vp_z="16 : 8 : 1"
       inkscape:persp3d-origin="8 : 5.3333333 : 1"
       id="perspective26" />
    <linearGradient
       inkscape:collect="always"
       id="linearGradient3327">
      <stop
         style="stop-color:#000000;stop-opacity:1;"
         offset="0"
         id="stop3330" />
      <stop
         style="stop-color:#000000;stop-opacity:0;"
         offset="1"
         id="stop3333" />
    </linearGradient>
    <linearGradient
       id="ButtonColor"
       x1="10.31979"
       y1="21"
       x2="10.31979"
       y2="0.99929649"
       gradientUnits="userSpaceOnUse">
      <stop
         style="stop-color:#e6e6e6;stop-opacity:1;"
         offset="0"
         id="stop3189" />
      <stop
         style="stop-color:#f5f5f5;stop-opacity:1;"
         offset="1"
         id="stop3191" />
    </linearGradient>
    <linearGradient
       inkscape:collect="always"
       xlink:href="#linearGradient3327"
       id="linearGradient3192"
       x1="9.0574636"
       y1="10.202822"
       x2="9.0574636"
       y2="-12.198761"
       gradientUnits="userSpaceOnUse"
       gradientTransform="translate(0,5.8006549)" />
    <linearGradient
       inkscape:collect="always"
       xlink:href="#ButtonColor"
       id="linearGradient3204"
       x1="1"
       y1="9"
       x2="15"
       y2="9"
       gradientUnits="userSpaceOnUse"
       gradientTransform="translate(-16,-1)" />
    <linearGradient
       inkscape:collect="always"
       xlink:href="#ButtonColor"
       id="linearGradient3173"
       gradientUnits="userSpaceOnUse"
       gradientTransform="translate(-16,-1)"
       x1="1"
       y1="9"
       x2="15"
       y2="9" />
    <linearGradient
       inkscape:collect="always"
       xlink:href="#ButtonColor"
       id="linearGradient3177"
       gradientUnits="userSpaceOnUse"
       gradientTransform="translate(-16,-1)"
       x1="1"
       y1="9"
       x2="15"
       y2="9" />
    <linearGradient
       inkscape:collect="always"
       xlink:href="#ButtonColor"
       id="linearGradient3179"
       gradientUnits="userSpaceOnUse"
       gradientTransform="matrix(0,-1,1,0,-1,16)"
       x1="1"
       y1="9"
       x2="15"
       y2="9" />
    <linearGradient
       inkscape:collect="always"
       xlink:href="#linearGradient3327"
       id="linearGradient3612"
       x1="8"
       y1="15"
       x2="8"
       y2="-1"
       gradientUnits="userSpaceOnUse" />
    <inkscape:perspective
       id="perspective3752"
       inkscape:persp3d-origin="0.5 : 0.33333333 : 1"
       inkscape:vp_z="1 : 0.5 : 1"
       inkscape:vp_y="0 : 1000 : 0"
       inkscape:vp_x="0 : 0.5 : 1"
       sodipodi:type="inkscape:persp3d" />
    <linearGradient
       inkscape:collect="always"
       xlink:href="#ButtonColor-5"
       id="linearGradient3204-0"
       x1="1"
       y1="9"
       x2="16.955648"
       y2="9"
       gradientUnits="userSpaceOnUse"
       gradientTransform="translate(-17,-2)" />
    <linearGradient
       id="ButtonColor-5"
       x1="10.31979"
       y1="21"
       x2="10.31979"
       y2="0.99929649"
       gradientUnits="userSpaceOnUse">
      <stop
         style="stop-color:#e6e6e6;stop-opacity:1;"
         offset="0"
         id="stop3189-0" />
      <stop
         style="stop-color:#f5f5f5;stop-opacity:1;"
         offset="1"
         id="stop3191-2" />
    </linearGradient>
    <linearGradient
       y2="-19.30397"
       x2="9.0574636"
       y1="10.202822"
       x1="9.0574636"
       gradientTransform="translate(-0.499722,5.300655)"
       gradientUnits="userSpaceOnUse"
       id="linearGradient2897"
       xlink:href="#linearGradient3327-7"
       inkscape:collect="always" />
    <linearGradient
       inkscape:collect="always"
       id="linearGradient3327-7">
      <stop
         style="stop-color:#000000;stop-opacity:1;"
         offset="0"
         id="stop3330-6" />
      <stop
         style="stop-color:#000000;stop-opacity:0;"
         offset="1"
         id="stop3333-8" />
    </linearGradient>
    <linearGradient
       y2="9"
       x2="16.955648"
       y1="9"
       x1="1"
       gradientTransform="translate(-17,-2)"
       gradientUnits="userSpaceOnUse"
       id="linearGradient3767"
       xlink:href="#ButtonColor-5"
       inkscape:collect="always" />
    <inkscape:perspective
       id="perspective3702"
       inkscape:persp3d-origin="0.5 : 0.33333333 : 1"
       inkscape:vp_z="1 : 0.5 : 1"
       inkscape:vp_y="0 : 1000 : 0"
       inkscape:vp_x="0 : 0.5 : 1"
       sodipodi:type="inkscape:persp3d" />
    <linearGradient
       inkscape:collect="always"
       xlink:href="#linearGradient3729"
       id="linearGradient4361"
       gradientUnits="userSpaceOnUse"
       gradientTransform="translate(-6.3695831,18.92757)"
       x1="53.89452"
       y1="46.00061"
       x2="53.89452"
       y2="12.192646" />
    <linearGradient
       id="linearGradient3729">
      <stop
         style="stop-color:#2f55cf;stop-opacity:1;"
         offset="0"
         id="stop3731" />
      <stop
         style="stop-color:#6480dc;stop-opacity:1;"
         offset="1"
         id="stop3733" />
    </linearGradient>
    <linearGradient
       y2="12.192646"
       x2="53.89452"
       y1="46.00061"
       x1="53.89452"
       gradientTransform="translate(-6.3695831,18.92757)"
       gradientUnits="userSpaceOnUse"
       id="linearGradient3232-4"
       xlink:href="#linearGradient3729"
       inkscape:collect="always" />
    <linearGradient
       id="linearGradient3711">
      <stop
         style="stop-color:#2f55cf;stop-opacity:1;"
         offset="0"
         id="stop3713" />
      <stop
         style="stop-color:#6480dc;stop-opacity:1;"
         offset="1"
         id="stop3715" />
    </linearGradient>
    <linearGradient
       y2="12.192646"
       x2="53.89452"
       y1="46.00061"
       x1="53.89452"
       gradientTransform="translate(-6.3695831,18.92757)"
       gradientUnits="userSpaceOnUse"
       id="linearGradient3719"
       xlink:href="#linearGradient3729"
       inkscape:collect="always" />
  </defs>
  <sodipodi:namedview
     id="base"
     pagecolor="#ffffff"
     bordercolor="#e7e7e7"
     borderopacity="1"
     inkscape:pageopacity="0.0"
     inkscape:pageshadow="2"
     inkscape:zoom="10.003503"
     inkscape:cx="-30.075569"
     inkscape:cy="22.30065"
     inkscape:document-units="px"
     inkscape:current-layer="layer1"
     showgrid="true"
     inkscape:showpageshadow="false"
     showguides="false"
     inkscape:guide-bbox="true"
     inkscape:window-width="1920"
     inkscape:window-height="1023"
     inkscape:window-x="0"
     inkscape:window-y="24"
     inkscape:window-maximized="1">
    <sodipodi:guide
       orientation="1,0"
       position="0,112"
       id="guide2383" />
    <sodipodi:guide
       orientation="0,1"
       position="26.278146,128"
       id="guide2385" />
    <sodipodi:guide
       orientation="1,0"
       position="128,54.082119"
       id="guide2387" />
    <sodipodi:guide
       orientation="0,1"
       position="78.156291,0"
       id="guide2389" />
    <sodipodi:guide
       orientation="0,1"
       position="60.863576,64.084768"
       id="guide2391" />
    <inkscape:grid
       type="xygrid"
       id="grid3672"
       visible="true"
       enabled="true" />
  </sodipodi:namedview>
  <metadata
     id="metadata7">
    <rdf:RDF>
      <cc:Work
         rdf:about="">
        <dc:format>image/svg+xml</dc:format>
        <dc:type
           rdf:resource="http://purl.org/dc/dcmitype/StillImage" />
        <dc:title></dc:title>
      </cc:Work>
    </rdf:RDF>
  </metadata>
  <g
     inkscape:label="Button"
     inkscape:groupmode="layer"
     id="layer1">
    <rect
       ry="2"
       rx="2"
       y="0"
       x="-16"
       height="16"
       width="16"
       id="rect3196"
       style="fill:url(#linearGradient3767);fill-opacity:1;fill-rule:nonzero;stroke:none;display:inline"
       transform="matrix(0,-1,1,0,0,0)" />
    <path
       style="opacity:0.4;fill:url(#linearGradient2897);fill-opacity:1;fill-rule:nonzero;stroke:none;display:inline"
       d="M 2,0 C 0.892,0 0,0.892 0,2 l 0,12 c 0,1.108 0.892,2 2,2 l 12,0 c 1.108,0 2,-0.892 2,-2 L 16,2 C 16,0.892 15.108,0 14,0 L 2,0 z m 0.5,1 11,0 C 14.331,1 15,1.669 15,2.5 l 0,11 c 0,0.831 -0.669,1.5 -1.5,1.5 l -11,0 C 1.669,15 1,14.331 1,13.5 L 1,2.5 C 1,1.669 1.669,1 2.5,1 z"
       id="rect2410" />
    <path
       style="opacity:0.6;fill:#ffffff;fill-opacity:1;stroke:none;display:inline"
       d="M 2.5,1 C 1.669,1 1,1.669 1,2.5 l 0,1 C 1,2.669 1.669,2 2.5,2 l 11,0 C 14.331,2 15,2.669 15,3.5 l 0,-1 C 15,1.669 14.331,1 13.5,1 l -11,0 z"
       id="rect3770" />
    <g
       style="font-size:48px;font-style:normal;font-variant:normal;font-weight:bold;font-stretch:normal;text-align:start;line-height:125%;writing-mode:lr-tb;text-anchor:start;fill:url(#linearGradient4361);fill-opacity:1;stroke:none;display:inline;font-family:Liberation Sans;-inkscape-font-specification:Abandoned Bitplane Bold"
       id="text4284"
       transform="matrix(0.22942495,0,0,0.2354023,-3.412397,-3.2993107)">
      <path
         d="m 48.972656,59.554687 c 1.296855,5e-6 2.414042,-0.179682 3.351563,-0.539062 0.953102,-0.374994 1.773413,-0.859369 2.460937,-1.453125 0.7031,-0.593742 1.281225,-1.265617 1.734375,-2.015625 0.468724,-0.74999 0.851536,-1.507802 1.148438,-2.273438 l 6.023437,2.273438 c -0.484408,1.187508 -1.117219,2.351569 -1.898437,3.492187 -0.781281,1.14063 -1.757842,2.148441 -2.929688,3.023438 -1.171902,0.875002 -2.570338,1.585938 -4.195312,2.132812 -1.609398,0.53125 -3.507834,0.796875 -5.695313,0.796875 -2.859391,0 -5.335951,-0.421875 -7.429687,-1.265625 -2.093759,-0.859373 -3.828133,-2.046872 -5.203125,-3.5625 -1.35938,-1.531244 -2.375004,-3.343742 -3.046875,-5.4375 -0.656253,-2.093738 -0.984377,-4.382798 -0.984375,-6.867187 -2e-6,-2.578106 0.328122,-4.906228 0.984375,-6.984375 0.671871,-2.078099 1.679683,-3.843723 3.023437,-5.296875 1.343743,-1.46872 3.039054,-2.593718 5.085938,-3.375 2.062487,-0.796842 4.484359,-1.195279 7.265625,-1.195313 2.156229,3.4e-5 4.03904,0.226596 5.648437,0.679688 1.624975,0.453157 3.023411,1.093782 4.195313,1.921875 1.18747,0.81253 2.164032,1.781279 2.929687,2.90625 0.781218,1.109402 1.390593,2.335963 1.828125,3.679687 l -6.09375,1.664063 c -0.218776,-0.703102 -0.554714,-1.374976 -1.007812,-2.015625 -0.453151,-0.656225 -1.031275,-1.234349 -1.734375,-1.734375 -0.687524,-0.499973 -1.500023,-0.89841 -2.4375,-1.195313 -0.937521,-0.312472 -2.00002,-0.468721 -3.1875,-0.46875 -1.671892,2.9e-5 -3.109391,0.273466 -4.3125,0.820313 -1.203138,0.531277 -2.195325,1.296901 -2.976563,2.296875 -0.765635,1.000024 -1.335947,2.203148 -1.710937,3.609375 -0.359384,1.390645 -0.539072,2.953143 -0.539063,4.6875 -9e-6,1.718765 0.179679,3.296888 0.539063,4.734375 0.37499,1.421886 0.953114,2.648447 1.734375,3.679687 0.781238,1.031258 1.781237,1.835944 3,2.414063 1.234359,0.57813 2.71092,0.867192 4.429687,0.867187"
         style="fill:url(#linearGradient3719)"
         id="path4357" />
    </g>
  </g>
  <g
     inkscape:groupmode="layer"
     id="layer2"
     inkscape:label="Symbol"
     sodipodi:insensitive="true" />
</svg>
