<?xml version="1.0" encoding="UTF-8" standalone="no"?>
<!-- Created with Inkscape (http://www.inkscape.org/) -->

<svg
   xmlns:dc="http://purl.org/dc/elements/1.1/"
   xmlns:cc="http://creativecommons.org/ns#"
   xmlns:rdf="http://www.w3.org/1999/02/22-rdf-syntax-ns#"
   xmlns:svg="http://www.w3.org/2000/svg"
   xmlns="http://www.w3.org/2000/svg"
   xmlns:xlink="http://www.w3.org/1999/xlink"
   xmlns:sodipodi="http://sodipodi.sourceforge.net/DTD/sodipodi-0.dtd"
   xmlns:inkscape="http://www.inkscape.org/namespaces/inkscape"
   width="16"
   height="16"
   id="svg2"
   sodipodi:version="0.32"
   inkscape:version="0.47 r22583"
   version="1.0"
   sodipodi:docname="text-css.svg"
   inkscape:output_extension="org.inkscape.output.svg.inkscape"
   style="display:inline">
  <defs
     id="defs4">
    <inkscape:perspective
       sodipodi:type="inkscape:persp3d"
       inkscape:vp_x="0 : 8 : 1"
       inkscape:vp_y="0 : 1000 : 0"
       inkscape:vp_z="16 : 8 : 1"
       inkscape:persp3d-origin="8 : 5.3333333 : 1"
       id="perspective26" />
    <linearGradient
       inkscape:collect="always"
       id="linearGradient3327">
      <stop
         style="stop-color:#000000;stop-opacity:1;"
         offset="0"
         id="stop3330" />
      <stop
         style="stop-color:#000000;stop-opacity:0;"
         offset="1"
         id="stop3333" />
    </linearGradient>
    <linearGradient
       id="ButtonColor"
       x1="10.31979"
       y1="21"
       x2="10.31979"
       y2="0.99929649"
       gradientUnits="userSpaceOnUse">
      <stop
         style="stop-color:#e6e6e6;stop-opacity:1;"
         offset="0"
         id="stop3189" />
      <stop
         style="stop-color:#f5f5f5;stop-opacity:1;"
         offset="1"
         id="stop3191" />
    </linearGradient>
    <linearGradient
       inkscape:collect="always"
       xlink:href="#linearGradient3327"
       id="linearGradient3192"
       x1="9.0574636"
       y1="10.202822"
       x2="9.0574636"
       y2="-12.198761"
       gradientUnits="userSpaceOnUse"
       gradientTransform="translate(0,5.8006549)" />
    <linearGradient
       inkscape:collect="always"
       xlink:href="#ButtonColor"
       id="linearGradient3204"
       x1="1"
       y1="9"
       x2="15"
       y2="9"
       gradientUnits="userSpaceOnUse"
       gradientTransform="translate(-16,-1)" />
    <linearGradient
       inkscape:collect="always"
       xlink:href="#ButtonColor"
       id="linearGradient3173"
       gradientUnits="userSpaceOnUse"
       gradientTransform="translate(-16,-1)"
       x1="1"
       y1="9"
       x2="15"
       y2="9" />
    <linearGradient
       inkscape:collect="always"
       xlink:href="#ButtonColor"
       id="linearGradient3177"
       gradientUnits="userSpaceOnUse"
       gradientTransform="translate(-16,-1)"
       x1="1"
       y1="9"
       x2="15"
       y2="9" />
    <linearGradient
       inkscape:collect="always"
       xlink:href="#ButtonColor"
       id="linearGradient3179"
       gradientUnits="userSpaceOnUse"
       gradientTransform="matrix(0,-1,1,0,-1,16)"
       x1="1"
       y1="9"
       x2="15"
       y2="9" />
    <linearGradient
       inkscape:collect="always"
       xlink:href="#linearGradient3327"
       id="linearGradient3612"
       x1="8"
       y1="15"
       x2="8"
       y2="-1"
       gradientUnits="userSpaceOnUse" />
    <inkscape:perspective
       id="perspective3752"
       inkscape:persp3d-origin="0.5 : 0.33333333 : 1"
       inkscape:vp_z="1 : 0.5 : 1"
       inkscape:vp_y="0 : 1000 : 0"
       inkscape:vp_x="0 : 0.5 : 1"
       sodipodi:type="inkscape:persp3d" />
    <linearGradient
       inkscape:collect="always"
       xlink:href="#ButtonColor-5"
       id="linearGradient3204-0"
       x1="1"
       y1="9"
       x2="16.955648"
       y2="9"
       gradientUnits="userSpaceOnUse"
       gradientTransform="translate(-17,-2)" />
    <linearGradient
       id="ButtonColor-5"
       x1="10.31979"
       y1="21"
       x2="10.31979"
       y2="0.99929649"
       gradientUnits="userSpaceOnUse">
      <stop
         style="stop-color:#e6e6e6;stop-opacity:1;"
         offset="0"
         id="stop3189-0" />
      <stop
         style="stop-color:#f5f5f5;stop-opacity:1;"
         offset="1"
         id="stop3191-2" />
    </linearGradient>
    <linearGradient
       y2="-19.30397"
       x2="9.0574636"
       y1="10.202822"
       x1="9.0574636"
       gradientTransform="translate(-0.499722,5.300655)"
       gradientUnits="userSpaceOnUse"
       id="linearGradient2897"
       xlink:href="#linearGradient3327-7"
       inkscape:collect="always" />
    <linearGradient
       inkscape:collect="always"
       id="linearGradient3327-7">
      <stop
         style="stop-color:#000000;stop-opacity:1;"
         offset="0"
         id="stop3330-6" />
      <stop
         style="stop-color:#000000;stop-opacity:0;"
         offset="1"
         id="stop3333-8" />
    </linearGradient>
    <linearGradient
       y2="9"
       x2="16.955648"
       y1="9"
       x1="1"
       gradientTransform="translate(-17,-2)"
       gradientUnits="userSpaceOnUse"
       id="linearGradient3767"
       xlink:href="#ButtonColor-5"
       inkscape:collect="always" />
    <inkscape:perspective
       id="perspective3774"
       inkscape:persp3d-origin="0.5 : 0.33333333 : 1"
       inkscape:vp_z="1 : 0.5 : 1"
       inkscape:vp_y="0 : 1000 : 0"
       inkscape:vp_x="0 : 0.5 : 1"
       sodipodi:type="inkscape:persp3d" />
    <linearGradient
       inkscape:collect="always"
       xlink:href="#linearGradient3802"
       id="linearGradient3808"
       x1="14"
       y1="16"
       x2="18"
       y2="16"
       gradientUnits="userSpaceOnUse"
       gradientTransform="translate(-20,-12)" />
    <linearGradient
       id="linearGradient3802">
      <stop
         style="stop-color:#ed702d;stop-opacity:1;"
         offset="0"
         id="stop3804" />
      <stop
         style="stop-color:#f4915c;stop-opacity:1;"
         offset="1"
         id="stop3806" />
    </linearGradient>
    <linearGradient
       inkscape:collect="always"
       xlink:href="#linearGradient3794"
       id="linearGradient3800"
       x1="14"
       y1="41"
       x2="18"
       y2="41"
       gradientUnits="userSpaceOnUse"
       gradientTransform="translate(-24,-36)" />
    <linearGradient
       id="linearGradient3794">
      <stop
         style="stop-color:#dfa716;stop-opacity:1;"
         offset="0"
         id="stop3796" />
      <stop
         style="stop-color:#ecbb3d;stop-opacity:1;"
         offset="1"
         id="stop3798" />
    </linearGradient>
    <linearGradient
       inkscape:collect="always"
       xlink:href="#linearGradient3786"
       id="linearGradient3792"
       x1="38"
       y1="40"
       x2="42"
       y2="40"
       gradientUnits="userSpaceOnUse"
       gradientTransform="translate(-48,-32)" />
    <linearGradient
       id="linearGradient3786">
      <stop
         style="stop-color:#d652aa;stop-opacity:1;"
         offset="0"
         id="stop3788" />
      <stop
         style="stop-color:#e17fc0;stop-opacity:1;"
         offset="1"
         id="stop3790" />
    </linearGradient>
    <linearGradient
       inkscape:collect="always"
       xlink:href="#linearGradient3715"
       id="linearGradient3722"
       x1="62"
       y1="64"
       x2="66"
       y2="64"
       gradientUnits="userSpaceOnUse"
       gradientTransform="translate(-76,-52)" />
    <linearGradient
       id="linearGradient3715">
      <stop
         style="stop-color:#3c64dc;stop-opacity:1;"
         offset="0"
         id="stop3717" />
      <stop
         style="stop-color:#6b89e5;stop-opacity:1;"
         offset="1"
         id="stop3719" />
    </linearGradient>
    <linearGradient
       inkscape:collect="always"
       xlink:href="#linearGradient3707"
       id="linearGradient3713"
       x1="38"
       y1="65"
       x2="42"
       y2="65"
       gradientUnits="userSpaceOnUse"
       gradientTransform="translate(-52,-56)" />
    <linearGradient
       id="linearGradient3707">
      <stop
         style="stop-color:#1b82c6;stop-opacity:1;"
         offset="0"
         id="stop3709" />
      <stop
         style="stop-color:#32b6e3;stop-opacity:1;"
         offset="1"
         id="stop3711" />
    </linearGradient>
    <linearGradient
       y2="64"
       x2="18"
       y1="64"
       x1="14"
       gradientTransform="translate(-32,-58)"
       gradientUnits="userSpaceOnUse"
       id="linearGradient3042"
       xlink:href="#linearGradient3699"
       inkscape:collect="always" />
    <linearGradient
       id="linearGradient3699">
      <stop
         style="stop-color:#45c13d;stop-opacity:1;"
         offset="0"
         id="stop3701" />
      <stop
         style="stop-color:#76d56f;stop-opacity:1;"
         offset="1"
         id="stop3703" />
    </linearGradient>
    <linearGradient
       y2="64"
       x2="18"
       y1="64"
       x1="14"
       gradientTransform="translate(-28,-60)"
       gradientUnits="userSpaceOnUse"
       id="linearGradient3809"
       xlink:href="#linearGradient3699"
       inkscape:collect="always" />
    <linearGradient
       inkscape:collect="always"
       xlink:href="#linearGradient3802"
       id="linearGradient2938"
       gradientUnits="userSpaceOnUse"
       gradientTransform="translate(-21,-12)"
       x1="14"
       y1="16"
       x2="18"
       y2="16" />
    <linearGradient
       inkscape:collect="always"
       xlink:href="#linearGradient3802"
       id="linearGradient2940"
       gradientUnits="userSpaceOnUse"
       gradientTransform="matrix(0,-1,1,0,-12,20)"
       x1="14"
       y1="16"
       x2="18"
       y2="16" />
    <linearGradient
       inkscape:collect="always"
       xlink:href="#linearGradient3802"
       id="linearGradient3731"
       gradientUnits="userSpaceOnUse"
       gradientTransform="translate(-19,-12)"
       x1="14"
       y1="16"
       x2="18"
       y2="16" />
    <linearGradient
       inkscape:collect="always"
       xlink:href="#linearGradient3802"
       id="linearGradient3733"
       gradientUnits="userSpaceOnUse"
       gradientTransform="matrix(0,-1,1,0,-12,20)"
       x1="14"
       y1="16"
       x2="18"
       y2="16" />
  </defs>
  <sodipodi:namedview
     id="base"
     pagecolor="#ffffff"
     bordercolor="#e7e7e7"
     borderopacity="1"
     inkscape:pageopacity="0.0"
     inkscape:pageshadow="2"
     inkscape:zoom="19.887964"
     inkscape:cx="-4.006702"
     inkscape:cy="6.8746563"
     inkscape:document-units="px"
     inkscape:current-layer="layer1"
     showgrid="true"
     inkscape:showpageshadow="false"
     showguides="false"
     inkscape:guide-bbox="true"
     inkscape:window-width="1920"
     inkscape:window-height="1023"
     inkscape:window-x="0"
     inkscape:window-y="24"
     inkscape:window-maximized="1">
    <sodipodi:guide
       orientation="1,0"
       position="0,112"
       id="guide2383" />
    <sodipodi:guide
       orientation="0,1"
       position="26.278146,128"
       id="guide2385" />
    <sodipodi:guide
       orientation="1,0"
       position="128,54.082119"
       id="guide2387" />
    <sodipodi:guide
       orientation="0,1"
       position="78.156291,0"
       id="guide2389" />
    <sodipodi:guide
       orientation="0,1"
       position="60.863576,64.084768"
       id="guide2391" />
    <inkscape:grid
       type="xygrid"
       id="grid3672"
       visible="true"
       enabled="true"
       empspacing="8"
       snapvisiblegridlinesonly="true" />
  </sodipodi:namedview>
  <metadata
     id="metadata7">
    <rdf:RDF>
      <cc:Work
         rdf:about="">
        <dc:format>image/svg+xml</dc:format>
        <dc:type
           rdf:resource="http://purl.org/dc/dcmitype/StillImage" />
        <dc:title></dc:title>
      </cc:Work>
    </rdf:RDF>
  </metadata>
  <g
     inkscape:label="Button"
     inkscape:groupmode="layer"
     id="layer1">
    <rect
       ry="2"
       rx="2"
       y="0"
       x="-16"
       height="16"
       width="16"
       id="rect3196"
       style="fill:url(#linearGradient3767);fill-opacity:1;fill-rule:nonzero;stroke:none;display:inline"
       transform="matrix(0,-1,1,0,0,0)" />
    <path
       style="opacity:0.4;fill:url(#linearGradient2897);fill-opacity:1;fill-rule:nonzero;stroke:none;display:inline"
       d="M 2,0 C 0.892,0 0,0.892 0,2 l 0,12 c 0,1.108 0.892,2 2,2 l 12,0 c 1.108,0 2,-0.892 2,-2 L 16,2 C 16,0.892 15.108,0 14,0 L 2,0 z m 0.5,1 11,0 C 14.331,1 15,1.669 15,2.5 l 0,11 c 0,0.831 -0.669,1.5 -1.5,1.5 l -11,0 C 1.669,15 1,14.331 1,13.5 L 1,2.5 C 1,1.669 1.669,1 2.5,1 z"
       id="rect2410" />
    <path
       style="opacity:0.6;fill:#ffffff;fill-opacity:1;stroke:none;display:inline"
       d="M 2.5,1 C 1.669,1 1,1.669 1,2.5 l 0,1 C 1,2.669 1.669,2 2.5,2 l 11,0 C 14.331,2 15,2.669 15,3.5 l 0,-1 C 15,1.669 14.331,1 13.5,1 l -11,0 z"
       id="rect3770" />
    <rect
       transform="matrix(0,-1,1,0,0,0)"
       ry="0.5"
       rx="0.5"
       y="2"
       x="-14"
       height="4"
       width="4"
       id="rect3888"
       style="color:#000000;fill:url(#linearGradient3809);fill-opacity:1;fill-rule:nonzero;stroke:none;stroke-width:1;marker:none;visibility:visible;display:inline;overflow:visible;enable-background:accumulate" />
    <rect
       transform="matrix(0,-1,1,0,0,0)"
       style="color:#000000;fill:url(#linearGradient3713);fill-opacity:1;fill-rule:nonzero;stroke:none;stroke-width:1;marker:none;visibility:visible;display:inline;overflow:visible;enable-background:accumulate"
       id="rect3890"
       width="4"
       height="4"
       x="-14"
       y="6"
       rx="0.5"
       ry="0.5" />
    <rect
       transform="matrix(0,-1,1,0,0,0)"
       ry="0.5"
       rx="0.5"
       y="10"
       x="-14"
       height="4"
       width="4"
       id="rect3892"
       style="color:#000000;fill:url(#linearGradient3722);fill-opacity:1;fill-rule:nonzero;stroke:none;stroke-width:1;marker:none;visibility:visible;display:inline;overflow:visible;enable-background:accumulate" />
    <rect
       transform="matrix(0,-1,1,0,0,0)"
       style="color:#000000;fill:url(#linearGradient3800);fill-opacity:1;fill-rule:nonzero;stroke:none;stroke-width:1;marker:none;visibility:visible;display:inline;overflow:visible;enable-background:accumulate"
       id="rect3894"
       width="4"
       height="4"
       x="-10"
       y="2"
       rx="0.5"
       ry="0.5" />
    <rect
       transform="matrix(0,-1,1,0,0,0)"
       ry="0.5"
       rx="0.5"
       y="6"
       x="-10"
       height="4"
       width="4"
       id="rect3896"
       style="color:#000000;fill:url(#linearGradient3792);fill-opacity:1;fill-rule:nonzero;stroke:none;stroke-width:1;marker:none;visibility:visible;display:inline;overflow:visible;enable-background:accumulate" />
    <rect
       transform="matrix(0,-1,1,0,0,0)"
       ry="0.5"
       rx="0.5"
       y="2"
       x="-6"
       height="4"
       width="4"
       id="rect3898"
       style="color:#000000;fill:url(#linearGradient3808);fill-opacity:1;fill-rule:nonzero;stroke:none;stroke-width:1;marker:none;visibility:visible;display:inline;overflow:visible;enable-background:accumulate" />
    <path
       style="color:#000000;fill:#000000;fill-opacity:1;fill-rule:nonzero;stroke:none;stroke-width:1;marker:none;visibility:visible;display:inline;overflow:visible;enable-background:accumulate;opacity:0.15"
       d="M 2.5 2 C 2.223 2 2 2.223 2 2.5 L 2 3.5 C 2 3.223 2.223 3 2.5 3 L 5.5 3 C 5.777 3 6 3.223 6 3.5 L 6 2.5 C 6 2.223 5.777 2 5.5 2 L 2.5 2 z "
       id="rect2934" />
    <path
       id="path3715"
       d="M 2.5,6 C 2.223,6 2,6.223 2,6.5 l 0,1 C 2,7.223 2.223,7 2.5,7 l 3,0 C 5.777,7 6,7.223 6,7.5 l 0,-1 C 6,6.223 5.777,6 5.5,6 l -3,0 z"
       style="opacity:0.15;color:#000000;fill:#000000;fill-opacity:1;fill-rule:nonzero;stroke:none;stroke-width:1;marker:none;visibility:visible;display:inline;overflow:visible;enable-background:accumulate" />
    <path
       style="opacity:0.2;color:#000000;fill:#000000;fill-opacity:1;fill-rule:nonzero;stroke:none;stroke-width:1;marker:none;visibility:visible;display:inline;overflow:visible;enable-background:accumulate"
       d="M 6.5,6 C 6.223,6 6,6.223 6,6.5 l 0,1 C 6,7.223 6.223,7 6.5,7 l 3,0 C 9.777,7 10,7.223 10,7.5 l 0,-1 C 10,6.223 9.777,6 9.5,6 l -3,0 z"
       id="path3717" />
    <path
       id="path3719"
       d="M 10.5,10 C 10.223,10 10,10.223 10,10.5 l 0,1 C 10,11.223 10.223,11 10.5,11 l 3,0 c 0.277,0 0.5,0.223 0.5,0.5 l 0,-1 C 14,10.223 13.777,10 13.5,10 l -3,0 z"
       style="opacity:0.2;color:#000000;fill:#000000;fill-opacity:1;fill-rule:nonzero;stroke:none;stroke-width:1;marker:none;visibility:visible;display:inline;overflow:visible;enable-background:accumulate" />
    <path
       style="opacity:0.2;color:#000000;fill:#000000;fill-opacity:1;fill-rule:nonzero;stroke:none;stroke-width:1;marker:none;visibility:visible;display:inline;overflow:visible;enable-background:accumulate"
       d="M 6.5,10 C 6.223,10 6,10.223 6,10.5 l 0,1 C 6,11.223 6.223,11 6.5,11 l 3,0 c 0.277,0 0.5,0.223 0.5,0.5 l 0,-1 C 10,10.223 9.777,10 9.5,10 l -3,0 z"
       id="path3721" />
    <path
       id="path3723"
       d="M 2.5,10 C 2.223,10 2,10.223 2,10.5 l 0,1 C 2,11.223 2.223,11 2.5,11 l 3,0 C 5.777,11 6,11.223 6,11.5 l 0,-1 C 6,10.223 5.777,10 5.5,10 l -3,0 z"
       style="opacity:0.2;color:#000000;fill:#000000;fill-opacity:1;fill-rule:nonzero;stroke:none;stroke-width:1;marker:none;visibility:visible;display:inline;overflow:visible;enable-background:accumulate" />
    <path
       style="color:#000000;fill:#ffffff;fill-opacity:1;fill-rule:nonzero;stroke:none;stroke-width:1;marker:none;visibility:visible;display:inline;overflow:visible;enable-background:accumulate;opacity:0.3"
       d="M 2 4.5 L 2 5.5 C 2 5.777 2.223 6 2.5 6 L 5.5 6 C 5.777 6 6 5.777 6 5.5 L 6 4.5 C 6 4.777 5.777 5 5.5 5 L 2.5 5 C 2.223 5 2 4.777 2 4.5 z "
       id="rect3727" />
    <path
       id="path3736"
       d="m 2,8.5 0,1 C 2,9.777 2.223,10 2.5,10 l 3,0 C 5.777,10 6,9.777 6,9.5 l 0,-1 C 6,8.777 5.777,9 5.5,9 l -3,0 C 2.223,9 2,8.777 2,8.5 z"
       style="opacity:0.3;color:#000000;fill:#ffffff;fill-opacity:1;fill-rule:nonzero;stroke:none;stroke-width:1;marker:none;visibility:visible;display:inline;overflow:visible;enable-background:accumulate" />
    <path
       style="opacity:0.3;color:#000000;fill:#ffffff;fill-opacity:1;fill-rule:nonzero;stroke:none;stroke-width:1;marker:none;visibility:visible;display:inline;overflow:visible;enable-background:accumulate"
       d="m 6,8.5 0,1 C 6,9.777 6.223,10 6.5,10 l 3,0 C 9.777,10 10,9.777 10,9.5 l 0,-1 C 10,8.777 9.777,9 9.5,9 l -3,0 C 6.223,9 6,8.777 6,8.5 z"
       id="path3738" />
    <path
       id="path3740"
       d="m 6,12.5 0,1 C 6,13.777 6.223,14 6.5,14 l 3,0 C 9.777,14 10,13.777 10,13.5 l 0,-1 C 10,12.777 9.777,13 9.5,13 l -3,0 C 6.223,13 6,12.777 6,12.5 z"
       style="opacity:0.3;color:#000000;fill:#ffffff;fill-opacity:1;fill-rule:nonzero;stroke:none;stroke-width:1;marker:none;visibility:visible;display:inline;overflow:visible;enable-background:accumulate" />
    <path
       style="opacity:0.3;color:#000000;fill:#ffffff;fill-opacity:1;fill-rule:nonzero;stroke:none;stroke-width:1;marker:none;visibility:visible;display:inline;overflow:visible;enable-background:accumulate"
       d="m 10,12.5 0,1 c 0,0.277 0.223,0.5 0.5,0.5 l 3,0 c 0.277,0 0.5,-0.223 0.5,-0.5 l 0,-1 c 0,0.277 -0.223,0.5 -0.5,0.5 l -3,0 C 10.223,13 10,12.777 10,12.5 z"
       id="path3742" />
    <path
       id="path3744"
       d="m 2,12.5 0,1 C 2,13.777 2.223,14 2.5,14 l 3,0 C 5.777,14 6,13.777 6,13.5 l 0,-1 C 6,12.777 5.777,13 5.5,13 l -3,0 C 2.223,13 2,12.777 2,12.5 z"
       style="opacity:0.3;color:#000000;fill:#ffffff;fill-opacity:1;fill-rule:nonzero;stroke:none;stroke-width:1;marker:none;visibility:visible;display:inline;overflow:visible;enable-background:accumulate" />
  </g>
  <g
     inkscape:groupmode="layer"
     id="layer2"
     inkscape:label="Symbol"
     sodipodi:insensitive="true" />
</svg>
