<?xml version="1.0" encoding="UTF-8" standalone="no"?>
<!-- Created with Inkscape (http://www.inkscape.org/) -->

<svg
   xmlns:dc="http://purl.org/dc/elements/1.1/"
   xmlns:cc="http://creativecommons.org/ns#"
   xmlns:rdf="http://www.w3.org/1999/02/22-rdf-syntax-ns#"
   xmlns:svg="http://www.w3.org/2000/svg"
   xmlns="http://www.w3.org/2000/svg"
   xmlns:xlink="http://www.w3.org/1999/xlink"
   xmlns:sodipodi="http://sodipodi.sourceforge.net/DTD/sodipodi-0.dtd"
   xmlns:inkscape="http://www.inkscape.org/namespaces/inkscape"
   width="16"
   height="16"
   id="svg2"
   sodipodi:version="0.32"
   inkscape:version="0.48.0 r9654"
   version="1.0"
   sodipodi:docname="text-x-tex.svg"
   inkscape:output_extension="org.inkscape.output.svg.inkscape"
   style="display:inline">
  <defs
     id="defs4">
    <inkscape:perspective
       sodipodi:type="inkscape:persp3d"
       inkscape:vp_x="0 : 8 : 1"
       inkscape:vp_y="0 : 1000 : 0"
       inkscape:vp_z="16 : 8 : 1"
       inkscape:persp3d-origin="8 : 5.3333333 : 1"
       id="perspective26" />
    <linearGradient
       inkscape:collect="always"
       id="linearGradient3327">
      <stop
         style="stop-color:#000000;stop-opacity:1;"
         offset="0"
         id="stop3330" />
      <stop
         style="stop-color:#000000;stop-opacity:0;"
         offset="1"
         id="stop3333" />
    </linearGradient>
    <linearGradient
       id="ButtonColor"
       x1="10.31979"
       y1="21"
       x2="10.31979"
       y2="0.99929649"
       gradientUnits="userSpaceOnUse">
      <stop
         style="stop-color:#e6e6e6;stop-opacity:1;"
         offset="0"
         id="stop3189" />
      <stop
         style="stop-color:#f5f5f5;stop-opacity:1;"
         offset="1"
         id="stop3191" />
    </linearGradient>
    <linearGradient
       inkscape:collect="always"
       xlink:href="#linearGradient3327"
       id="linearGradient3192"
       x1="9.0574636"
       y1="10.202822"
       x2="9.0574636"
       y2="-12.198761"
       gradientUnits="userSpaceOnUse"
       gradientTransform="translate(0,5.8006549)" />
    <linearGradient
       inkscape:collect="always"
       xlink:href="#ButtonColor"
       id="linearGradient3204"
       x1="1"
       y1="9"
       x2="15"
       y2="9"
       gradientUnits="userSpaceOnUse"
       gradientTransform="translate(-16,-1)" />
    <linearGradient
       inkscape:collect="always"
       xlink:href="#ButtonColor"
       id="linearGradient3173"
       gradientUnits="userSpaceOnUse"
       gradientTransform="translate(-16,-1)"
       x1="1"
       y1="9"
       x2="15"
       y2="9" />
    <linearGradient
       inkscape:collect="always"
       xlink:href="#ButtonColor"
       id="linearGradient3177"
       gradientUnits="userSpaceOnUse"
       gradientTransform="translate(-16,-1)"
       x1="1"
       y1="9"
       x2="15"
       y2="9" />
    <linearGradient
       inkscape:collect="always"
       xlink:href="#ButtonColor"
       id="linearGradient3179"
       gradientUnits="userSpaceOnUse"
       gradientTransform="matrix(0,-1,1,0,-1,16)"
       x1="1"
       y1="9"
       x2="15"
       y2="9" />
    <linearGradient
       inkscape:collect="always"
       xlink:href="#linearGradient3327"
       id="linearGradient3612"
       x1="8"
       y1="15"
       x2="8"
       y2="-1"
       gradientUnits="userSpaceOnUse" />
    <inkscape:perspective
       id="perspective3752"
       inkscape:persp3d-origin="0.5 : 0.33333333 : 1"
       inkscape:vp_z="1 : 0.5 : 1"
       inkscape:vp_y="0 : 1000 : 0"
       inkscape:vp_x="0 : 0.5 : 1"
       sodipodi:type="inkscape:persp3d" />
    <linearGradient
       inkscape:collect="always"
       xlink:href="#ButtonColor-5"
       id="linearGradient3204-0"
       x1="1"
       y1="9"
       x2="16.955648"
       y2="9"
       gradientUnits="userSpaceOnUse"
       gradientTransform="translate(-17,-2)" />
    <linearGradient
       id="ButtonColor-5"
       x1="10.31979"
       y1="21"
       x2="10.31979"
       y2="0.99929649"
       gradientUnits="userSpaceOnUse">
      <stop
         style="stop-color:#e6e6e6;stop-opacity:1;"
         offset="0"
         id="stop3189-0" />
      <stop
         style="stop-color:#f5f5f5;stop-opacity:1;"
         offset="1"
         id="stop3191-2" />
    </linearGradient>
    <linearGradient
       y2="-19.30397"
       x2="9.0574636"
       y1="10.202822"
       x1="9.0574636"
       gradientTransform="translate(-0.499722,5.300655)"
       gradientUnits="userSpaceOnUse"
       id="linearGradient2897"
       xlink:href="#linearGradient3327-7"
       inkscape:collect="always" />
    <linearGradient
       inkscape:collect="always"
       id="linearGradient3327-7">
      <stop
         style="stop-color:#000000;stop-opacity:1;"
         offset="0"
         id="stop3330-6" />
      <stop
         style="stop-color:#000000;stop-opacity:0;"
         offset="1"
         id="stop3333-8" />
    </linearGradient>
    <linearGradient
       y2="9"
       x2="16.955648"
       y1="9"
       x1="1"
       gradientTransform="translate(-17,-2)"
       gradientUnits="userSpaceOnUse"
       id="linearGradient3767"
       xlink:href="#ButtonColor-5"
       inkscape:collect="always" />
  </defs>
  <sodipodi:namedview
     id="base"
     pagecolor="#ffffff"
     bordercolor="#e7e7e7"
     borderopacity="1"
     inkscape:pageopacity="0.0"
     inkscape:pageshadow="2"
     inkscape:zoom="43.099636"
     inkscape:cx="-7.5694803"
     inkscape:cy="10.974163"
     inkscape:document-units="px"
     inkscape:current-layer="layer1"
     showgrid="true"
     inkscape:showpageshadow="false"
     showguides="false"
     inkscape:guide-bbox="true"
     inkscape:window-width="1920"
     inkscape:window-height="1029"
     inkscape:window-x="0"
     inkscape:window-y="25"
     inkscape:window-maximized="1">
    <sodipodi:guide
       orientation="1,0"
       position="0,112"
       id="guide2383" />
    <sodipodi:guide
       orientation="0,1"
       position="26.278146,128"
       id="guide2385" />
    <sodipodi:guide
       orientation="1,0"
       position="128,54.082119"
       id="guide2387" />
    <sodipodi:guide
       orientation="0,1"
       position="78.156291,0"
       id="guide2389" />
    <sodipodi:guide
       orientation="0,1"
       position="60.863576,64.084768"
       id="guide2391" />
    <inkscape:grid
       type="xygrid"
       id="grid3672"
       visible="true"
       enabled="true" />
  </sodipodi:namedview>
  <metadata
     id="metadata7">
    <rdf:RDF>
      <cc:Work
         rdf:about="">
        <dc:format>image/svg+xml</dc:format>
        <dc:type
           rdf:resource="http://purl.org/dc/dcmitype/StillImage" />
        <dc:title />
      </cc:Work>
    </rdf:RDF>
  </metadata>
  <g
     inkscape:label="Button"
     inkscape:groupmode="layer"
     id="layer1">
    <rect
       ry="2"
       rx="2"
       y="0"
       x="-16"
       height="16"
       width="16"
       id="rect3196"
       style="fill:url(#linearGradient3767);fill-opacity:1;fill-rule:nonzero;stroke:none;display:inline"
       transform="matrix(0,-1,1,0,0,0)" />
    <path
       style="opacity:0.4;fill:url(#linearGradient2897);fill-opacity:1;fill-rule:nonzero;stroke:none;display:inline"
       d="M 2,0 C 0.892,0 0,0.892 0,2 l 0,12 c 0,1.108 0.892,2 2,2 l 12,0 c 1.108,0 2,-0.892 2,-2 L 16,2 C 16,0.892 15.108,0 14,0 L 2,0 z m 0.5,1 11,0 C 14.331,1 15,1.669 15,2.5 l 0,11 c 0,0.831 -0.669,1.5 -1.5,1.5 l -11,0 C 1.669,15 1,14.331 1,13.5 L 1,2.5 C 1,1.669 1.669,1 2.5,1 z"
       id="rect2410" />
    <path
       style="opacity:0.6;fill:#ffffff;fill-opacity:1;stroke:none;display:inline"
       d="M 2.5,1 C 1.669,1 1,1.669 1,2.5 l 0,1 C 1,2.669 1.669,2 2.5,2 l 11,0 C 14.331,2 15,2.669 15,3.5 l 0,-1 C 15,1.669 14.331,1 13.5,1 l -11,0 z"
       id="rect3770" />
    <path
       transform="matrix(0.75902239,0,0,0.75902239,-1.1071986,-0.895716)"
       sodipodi:type="inkscape:offset"
       inkscape:radius="0.22009014"
       inkscape:original="M 3.1875 7.1875 L 3 9.5625 L 3.1875 9.5625 C 3.3259844 7.7873017 3.494432 7.46875 5.15625 7.46875 L 5.75 7.46875 C 5.9546979 7.50079 5.9375 7.6283238 5.9375 7.875 L 5.9375 13.71875 C 5.9375 14.106074 5.902749 14.21875 5 14.21875 L 4.6875 14.21875 L 4.6875 14.5 C 5.2016249 14.49 5.7554404 14.46875 6.28125 14.46875 C 6.8053286 14.46875 7.3300578 14.49001 7.84375 14.5 L 7.84375 14.21875 L 7.5625 14.21875 C 6.6731633 14.21875 6.625 14.106074 6.625 13.71875 L 6.625 7.875 C 6.625 7.6382818 6.61949 7.5124649 6.8125 7.46875 L 7.40625 7.46875 C 9.0341046 7.46875 9.2058757 7.7882771 9.34375 9.53125 L 9.1875 9.53125 L 9.1875 9.8125 C 9.94657 9.8125 10.0625 9.799595 10.0625 10.28125 L 10.0625 16.09375 C 10.0625 16.57546 9.9483011 16.5625 9.1875 16.5625 L 9.1875 16.8125 L 14.75 16.8125 L 15.09375 14.46875 C 15.359444 14.46995 15.6552 14.48564 15.84375 14.5 L 15.84375 14.21875 C 15.512252 14.18677 15.40625 13.985173 15.40625 13.8125 C 15.40625 13.674015 15.4459 13.607417 15.5 13.53125 L 17.21875 11.03125 L 19.09375 13.75 C 19.17814 13.868621 19.1875 13.905476 19.1875 13.9375 C 19.1875 14.02189 19.09396 14.196679 18.71875 14.21875 L 18.71875 14.5 C 19.061933 14.47966 19.584363 14.46875 19.9375 14.46875 C 20.214902 14.46875 20.739908 14.47966 21 14.5 L 21 14.21875 C 20.313635 14.21875 20.21292 14.17746 20 13.875 L 17.625 10.4375 L 19.21875 8.125 C 19.377575 7.8999535 19.714372 7.4491751 20.59375 7.4375 L 20.59375 7.1875 C 20.348373 7.207839 19.944563 7.1875 19.6875 7.1875 C 19.334364 7.1875 18.892016 7.207839 18.625 7.1875 L 18.625 7.4375 C 18.968183 7.469514 19.03125 7.6710811 19.03125 7.84375 C 19.03125 7.9718571 18.98242 8.0810528 18.90625 8.1875 L 17.5 10.21875 L 15.90625 7.90625 C 15.83182 7.7893947 15.8125 7.750766 15.8125 7.71875 C 15.8125 7.622235 15.957633 7.4474583 16.3125 7.4375 L 16.3125 7.1875 C 15.969318 7.207839 15.446886 7.1875 15.09375 7.1875 C 14.816347 7.1875 14.258793 7.207839 14 7.1875 L 14 7.4375 C 14.58856 7.4375 14.794528 7.448461 15.03125 7.78125 L 17.09375 10.84375 L 15.21875 13.5625 C 14.758721 14.228525 14.079698 14.21875 13.875 14.21875 L 13.875 14.5 C 14.119945 14.47966 14.524187 14.46875 14.78125 14.46875 C 14.81523 14.46875 14.86707 14.468717 14.90625 14.46875 C 14.693853 15.813743 14.415531 16.5625 12.6875 16.5625 L 11.21875 16.5625 C 10.790746 16.5625 10.75 16.52496 10.75 16.15625 L 10.75 13.15625 L 11.78125 13.15625 C 12.792189 13.15625 12.875 13.501771 12.875 14.40625 L 13.0625 14.40625 L 13.0625 11.625 L 12.875 11.625 C 12.875 12.514332 12.79219 12.875 11.78125 12.875 L 10.75 12.875 L 10.75 10.21875 C 10.75 9.8569584 10.79075 9.8125 11.21875 9.8125 L 12.6875 9.8125 C 14.345856 9.8125 14.53733 10.489394 14.6875 11.90625 L 14.875 11.90625 L 14.625 9.53125 L 9.53125 9.53125 L 9.375 7.1875 L 3.1875 7.1875 z "
       style="fill:#333333;stroke:none;display:inline"
       id="path3094"
       d="M 3.125,6.96875 A 0.22011214,0.22011214 0 0 0 3.09375,7 0.22011214,0.22011214 0 0 0 3.03125,7.03125 0.22011214,0.22011214 0 0 0 3,7.0625 0.22011214,0.22011214 0 0 0 2.96875,7.15625 l -0.1875,2.375 a 0.22011214,0.22011214 0 0 0 0,0.09375 A 0.22011214,0.22011214 0 0 0 2.8125,9.6875 0.22011214,0.22011214 0 0 0 2.84375,9.71875 0.22011214,0.22011214 0 0 0 2.875,9.75 0.22011214,0.22011214 0 0 0 2.9375,9.78125 0.22011214,0.22011214 0 0 0 3,9.78125 l 0.1875,0 a 0.22011214,0.22011214 0 0 0 0.03125,0 A 0.22011214,0.22011214 0 0 0 3.28125,9.75 0.22011214,0.22011214 0 0 0 3.34375,9.71875 0.22011214,0.22011214 0 0 0 3.375,9.6875 0.22011214,0.22011214 0 0 0 3.40625,9.59375 C 3.4750334,8.7120315 3.5528144,8.2225678 3.75,8 3.8485928,7.8887161 3.9961688,7.8009482 4.21875,7.75 4.4413312,7.6990518 4.747827,7.6875 5.15625,7.6875 l 0.5625,0 c 0.00162,0.021528 0,0.077398 0,0.1875 l 0,5.84375 c 0,0.09354 0.00699,0.161332 0,0.1875 -0.00699,0.02617 -0.014177,0.02049 -0.03125,0.03125 C 5.6533537,13.959018 5.4422177,14 5,14 L 4.6875,14 A 0.22011214,0.22011214 0 0 0 4.65625,14 0.22011214,0.22011214 0 0 0 4.59375,14.03125 0.22011214,0.22011214 0 0 0 4.53125,14.0625 0.22011214,0.22011214 0 0 0 4.5,14.09375 a 0.22011214,0.22011214 0 0 0 -0.03125,0.125 l 0,0.28125 a 0.22011214,0.22011214 0 0 0 0,0.03125 0.22011214,0.22011214 0 0 0 0.03125,0.0625 0.22011214,0.22011214 0 0 0 0.03125,0.0625 0.22011214,0.22011214 0 0 0 0.03125,0.03125 0.22011214,0.22011214 0 0 0 0.125,0.03125 c 0.5171135,-0.01006 1.0738702,-0.03125 1.59375,-0.03125 0.5181264,0 1.0456518,0.0212 1.5625,0.03125 a 0.22011214,0.22011214 0 0 0 0.03125,0 0.22011214,0.22011214 0 0 0 0.1875,-0.1875 0.22011214,0.22011214 0 0 0 0,-0.03125 l 0,-0.28125 a 0.22011214,0.22011214 0 0 0 0,-0.03125 A 0.22011214,0.22011214 0 0 0 8.03125,14.125 0.22011214,0.22011214 0 0 0 8,14.0625 0.22011214,0.22011214 0 0 0 7.96875,14.03125 0.22011214,0.22011214 0 0 0 7.84375,14 L 7.5625,14 c -0.4353735,0 -0.6500249,-0.03921 -0.6875,-0.0625 -0.018738,-0.01165 -0.02396,-0.0055 -0.03125,-0.03125 -0.00729,-0.02575 0,-0.09523 0,-0.1875 l 0,-5.84375 c 0,-0.1029144 -0.00286,-0.1652046 0,-0.1875 l 0.03125,0 0.53125,0 C 7.8060135,7.6875 8.0944929,7.699559 8.3125,7.75 8.5305071,7.800441 8.6841354,7.8903272 8.78125,8 8.9548259,8.1960215 9.027187,8.6438033 9.09375,9.34375 A 0.22011214,0.22011214 0 0 0 9.03125,9.375 0.22011214,0.22011214 0 0 0 9,9.40625 0.22011214,0.22011214 0 0 0 8.96875,9.53125 l 0,0.28125 a 0.22011214,0.22011214 0 0 0 0,0.03125 A 0.22011214,0.22011214 0 0 0 9,9.90625 0.22011214,0.22011214 0 0 0 9.03125,9.96875 0.22011214,0.22011214 0 0 0 9.0625,10 a 0.22011214,0.22011214 0 0 0 0.125,0.03125 c 0.3807823,0 0.5933774,0.0167 0.625,0.03125 0.00783,0.02291 0.03125,0.107165 0.03125,0.21875 l 0,5.8125 c 0,0.111731 -0.02345,0.195782 -0.03125,0.21875 -0.031166,0.01436 -0.2433497,0.03125 -0.625,0.03125 a 0.22011214,0.22011214 0 0 0 -0.03125,0 A 0.22011214,0.22011214 0 0 0 9.09375,16.375 0.22011214,0.22011214 0 0 0 9.03125,16.40625 0.22011214,0.22011214 0 0 0 9,16.4375 0.22011214,0.22011214 0 0 0 8.96875,16.5625 l 0,0.25 a 0.22011214,0.22011214 0 0 0 0,0.03125 A 0.22011214,0.22011214 0 0 0 9,16.90625 0.22011214,0.22011214 0 0 0 9.03125,16.96875 0.22011214,0.22011214 0 0 0 9.0625,17 a 0.22011214,0.22011214 0 0 0 0.125,0.03125 l 5.5625,0 a 0.22011214,0.22011214 0 0 0 0.03125,0 0.22011214,0.22011214 0 0 0 0.0625,-0.03125 0.22011214,0.22011214 0 0 0 0.0625,-0.03125 0.22011214,0.22011214 0 0 0 0.03125,-0.03125 0.22011214,0.22011214 0 0 0 0.03125,-0.09375 l 0.3125,-2.15625 c 0.197019,0.0056 0.395694,0.02093 0.53125,0.03125 a 0.22011214,0.22011214 0 0 0 0.09375,0 0.22011214,0.22011214 0 0 0 0.0625,-0.03125 A 0.22011214,0.22011214 0 0 0 16,14.65625 0.22011214,0.22011214 0 0 0 16.03125,14.625 a 0.22011214,0.22011214 0 0 0 0.03125,-0.0625 0.22011214,0.22011214 0 0 0 0,-0.0625 l 0,-0.28125 a 0.22011214,0.22011214 0 0 0 0,-0.03125 A 0.22011214,0.22011214 0 0 0 16.03125,14.125 0.22011214,0.22011214 0 0 0 16,14.0625 0.22011214,0.22011214 0 0 0 15.96875,14.03125 0.22011214,0.22011214 0 0 0 15.875,14 c -0.123981,-0.01196 -0.1917,-0.0635 -0.21875,-0.09375 C 15.6292,13.875998 15.625,13.8538 15.625,13.8125 c 0,-0.09647 0.01408,-0.08807 0.0625,-0.15625 l 1.53125,-2.21875 1.6875,2.4375 c 0.0235,0.03303 0.0222,0.04723 0.03125,0.0625 -0.02673,0.02289 -0.06407,0.0534 -0.21875,0.0625 a 0.22011214,0.22011214 0 0 0 -0.0625,0 0.22011214,0.22011214 0 0 0 -0.0625,0.03125 0.22011214,0.22011214 0 0 0 -0.03125,0.03125 0.22011214,0.22011214 0 0 0 -0.03125,0.0625 0.22011214,0.22011214 0 0 0 -0.03125,0.0625 0.22011214,0.22011214 0 0 0 0,0.03125 l 0,0.28125 a 0.22011214,0.22011214 0 0 0 0,0.03125 0.22011214,0.22011214 0 0 0 0.03125,0.0625 0.22011214,0.22011214 0 0 0 0.03125,0.0625 0.22011214,0.22011214 0 0 0 0.03125,0.03125 0.22011214,0.22011214 0 0 0 0.125,0.03125 c 0.334654,-0.01984 0.870146,-0.03125 1.21875,-0.03125 0.271631,0 0.78801,0.01223 1.03125,0.03125 a 0.22011214,0.22011214 0 0 0 0.09375,0 0.22011214,0.22011214 0 0 0 0.0625,-0.03125 0.22011214,0.22011214 0 0 0 0.03125,-0.03125 0.22011214,0.22011214 0 0 0 0.03125,-0.03125 0.22011214,0.22011214 0 0 0 0.03125,-0.0625 0.22011214,0.22011214 0 0 0 0,-0.0625 l 0,-0.28125 a 0.22011214,0.22011214 0 0 0 0,-0.03125 A 0.22011214,0.22011214 0 0 0 21.1875,14.125 0.22011214,0.22011214 0 0 0 21.15625,14.0625 0.22011214,0.22011214 0 0 0 21.125,14.03125 0.22011214,0.22011214 0 0 0 21,14 c -0.338769,0 -0.508635,-0.03273 -0.59375,-0.0625 -0.08511,-0.02977 -0.118979,-0.04577 -0.21875,-0.1875 l -2.28125,-3.3125 1.5,-2.1875 c 0.154141,-0.2184102 0.38257,-0.5830633 1.1875,-0.59375 a 0.22011214,0.22011214 0 0 0 0.03125,0 A 0.22011214,0.22011214 0 0 0 20.6875,7.625 0.22011214,0.22011214 0 0 0 20.75,7.59375 0.22011214,0.22011214 0 0 0 20.78125,7.5625 0.22011214,0.22011214 0 0 0 20.8125,7.5 a 0.22011214,0.22011214 0 0 0 0,-0.0625 l 0,-0.25 a 0.22011214,0.22011214 0 0 0 0,-0.03125 A 0.22011214,0.22011214 0 0 0 20.78125,7.09375 0.22011214,0.22011214 0 0 0 20.75,7.03125 0.22011214,0.22011214 0 0 0 20.71875,7 a 0.22011214,0.22011214 0 0 0 -0.125,-0.03125 0.22011214,0.22011214 0 0 0 -0.03125,0 c -0.213529,0.017699 -0.606328,0 -0.875,0 -0.361587,0 -0.793669,0.018097 -1.03125,0 a 0.22011214,0.22011214 0 0 0 -0.09375,0 A 0.22011214,0.22011214 0 0 0 18.5,7 0.22011214,0.22011214 0 0 0 18.46875,7.03125 0.22011214,0.22011214 0 0 0 18.4375,7.0625 0.22011214,0.22011214 0 0 0 18.40625,7.125 a 0.22011214,0.22011214 0 0 0 0,0.0625 l 0,0.25 a 0.22011214,0.22011214 0 0 0 0,0.03125 0.22011214,0.22011214 0 0 0 0.03125,0.0625 0.22011214,0.22011214 0 0 0 0.03125,0.0625 A 0.22011214,0.22011214 0 0 0 18.5,7.625 0.22011214,0.22011214 0 0 0 18.59375,7.65625 c 0.1303,0.012155 0.170593,0.040604 0.1875,0.0625 0.01691,0.021896 0.03125,0.065461 0.03125,0.125 0,0.07218 -0.03313,0.1340298 -0.09375,0.21875 L 17.5,9.8125 16.09375,7.78125 c -0.05392,-0.084656 -0.03142,-0.077424 -0.03125,-0.0625 0.03886,-0.027467 0.107815,-0.05851 0.25,-0.0625 a 0.22011214,0.22011214 0 0 0 0.0625,0 A 0.22011214,0.22011214 0 0 0 16.4375,7.625 0.22011214,0.22011214 0 0 0 16.46875,7.59375 0.22011214,0.22011214 0 0 0 16.5,7.5625 0.22011214,0.22011214 0 0 0 16.53125,7.5 a 0.22011214,0.22011214 0 0 0 0,-0.0625 l 0,-0.25 a 0.22011214,0.22011214 0 0 0 0,-0.03125 A 0.22011214,0.22011214 0 0 0 16.5,7.09375 0.22011214,0.22011214 0 0 0 16.46875,7.03125 0.22011214,0.22011214 0 0 0 16.4375,7 0.22011214,0.22011214 0 0 0 16.3125,6.96875 c -0.321363,0.019046 -0.857163,0 -1.21875,0 -0.288161,0 -0.839748,0.017506 -1.0625,0 a 0.22011214,0.22011214 0 0 0 -0.09375,0 A 0.22011214,0.22011214 0 0 0 13.875,7 0.22011214,0.22011214 0 0 0 13.84375,7.03125 0.22011214,0.22011214 0 0 0 13.8125,7.0625 0.22011214,0.22011214 0 0 0 13.78125,7.125 a 0.22011214,0.22011214 0 0 0 0,0.0625 l 0,0.25 a 0.22011214,0.22011214 0 0 0 0,0.03125 0.22011214,0.22011214 0 0 0 0.03125,0.0625 0.22011214,0.22011214 0 0 0 0.03125,0.0625 A 0.22011214,0.22011214 0 0 0 13.875,7.625 0.22011214,0.22011214 0 0 0 14,7.65625 c 0.292914,0 0.484781,8.4e-6 0.59375,0.03125 0.108969,0.031242 0.148454,0.075994 0.25,0.21875 l 1.96875,2.9375 -1.78125,2.59375 C 14.62935,14.019367 14.086705,14 13.875,14 a 0.22011214,0.22011214 0 0 0 -0.03125,0 0.22011214,0.22011214 0 0 0 -0.0625,0.03125 0.22011214,0.22011214 0 0 0 -0.0625,0.03125 0.22011214,0.22011214 0 0 0 -0.03125,0.03125 0.22011214,0.22011214 0 0 0 -0.03125,0.125 l 0,0.28125 a 0.22011214,0.22011214 0 0 0 0,0.03125 0.22011214,0.22011214 0 0 0 0.03125,0.0625 0.22011214,0.22011214 0 0 0 0.03125,0.0625 0.22011214,0.22011214 0 0 0 0.03125,0.03125 0.22011214,0.22011214 0 0 0 0.125,0.03125 0.22011214,0.22011214 0 0 0 0.03125,0 c 0.190223,-0.0158 0.475865,-0.02803 0.71875,-0.03125 -0.09627,0.518432 -0.216014,0.935375 -0.4375,1.1875 -0.260271,0.296276 -0.667773,0.46875 -1.5,0.46875 l -1.46875,0 c -0.207567,0 -0.277872,-0.02428 -0.25,0 -0.0053,-0.02768 0,-0.09938 0,-0.1875 l 0,-2.78125 0.8125,0 c 0.240198,0 0.414431,0.02625 0.53125,0.0625 0.116819,0.03625 0.174876,0.0655 0.21875,0.125 0.08775,0.118995 0.125,0.398227 0.125,0.84375 a 0.22011214,0.22011214 0 0 0 0,0.03125 0.22011214,0.22011214 0 0 0 0.03125,0.0625 0.22011214,0.22011214 0 0 0 0.03125,0.0625 0.22011214,0.22011214 0 0 0 0.03125,0.03125 0.22011214,0.22011214 0 0 0 0.125,0.03125 l 0.1875,0 a 0.22011214,0.22011214 0 0 0 0.03125,0 0.22011214,0.22011214 0 0 0 0.0625,-0.03125 0.22011214,0.22011214 0 0 0 0.0625,-0.03125 0.22011214,0.22011214 0 0 0 0.03125,-0.03125 0.22011214,0.22011214 0 0 0 0.03125,-0.125 l 0,-2.78125 a 0.22011214,0.22011214 0 0 0 0,-0.03125 0.22011214,0.22011214 0 0 0 -0.03125,-0.0625 0.22011214,0.22011214 0 0 0 -0.03125,-0.0625 0.22011214,0.22011214 0 0 0 -0.03125,-0.03125 0.22011214,0.22011214 0 0 0 -0.125,-0.03125 l -0.1875,0 a 0.22011214,0.22011214 0 0 0 -0.03125,0 0.22011214,0.22011214 0 0 0 -0.0625,0.03125 0.22011214,0.22011214 0 0 0 -0.0625,0.03125 A 0.22011214,0.22011214 0 0 0 12.6875,11.5 0.22011214,0.22011214 0 0 0 12.65625,11.625 c 0,0.437835 -0.03611,0.722068 -0.125,0.84375 -0.04444,0.06084 -0.102207,0.08792 -0.21875,0.125 -0.116543,0.03708 -0.291602,0.0625 -0.53125,0.0625 l -0.8125,0 0,-2.4375 c 0,-0.08632 -0.0052,-0.160075 0,-0.1875 -0.02591,0.02292 0.04362,0 0.25,0 l 1.46875,0 c 0.799233,0 1.185444,0.158338 1.40625,0.4375 0.220806,0.279162 0.300561,0.766419 0.375,1.46875 A 0.22011214,0.22011214 0 0 0 14.5,12 a 0.22011214,0.22011214 0 0 0 0.03125,0.0625 0.22011214,0.22011214 0 0 0 0.03125,0.03125 0.22011214,0.22011214 0 0 0 0.125,0.03125 l 0.1875,0 a 0.22011214,0.22011214 0 0 0 0.03125,0 0.22011214,0.22011214 0 0 0 0.0625,-0.03125 0.22011214,0.22011214 0 0 0 0.0625,-0.03125 0.22011214,0.22011214 0 0 0 0.03125,-0.03125 0.22011214,0.22011214 0 0 0 0.03125,-0.125 0.22011214,0.22011214 0 0 0 0,-0.03125 L 14.84375,9.5 A 0.22011214,0.22011214 0 0 0 14.8125,9.4375 0.22011214,0.22011214 0 0 0 14.78125,9.375 0.22011214,0.22011214 0 0 0 14.75,9.34375 0.22011214,0.22011214 0 0 0 14.625,9.3125 l -4.875,0 -0.15625,-2.125 A 0.22011214,0.22011214 0 0 0 9.5625,7.0625 0.22011214,0.22011214 0 0 0 9.53125,7.03125 0.22011214,0.22011214 0 0 0 9.46875,7 0.22011214,0.22011214 0 0 0 9.40625,6.96875 a 0.22011214,0.22011214 0 0 0 -0.03125,0 l -6.1875,0 a 0.22011214,0.22011214 0 0 0 -0.03125,0 0.22011214,0.22011214 0 0 0 -0.03125,0 z" />
  </g>
  <g
     inkscape:groupmode="layer"
     id="layer2"
     inkscape:label="Symbol"
     sodipodi:insensitive="true" />
</svg>
